<svg id="Layer_1" enable-background="new 0 0 512 512" height="24" viewBox="0 0 512 512" width="24" xmlns="http://www.w3.org/2000/svg"><g><g><path d="m197.5 136.5c0-4.143-3.358-7.5-7.5-7.5h-54c-4.142 0-7.5 3.357-7.5 7.5v50c0 4.143 3.358 7.5 7.5 7.5h54c4.142 0 7.5-3.357 7.5-7.5zm-15 42.5h-39v-35h39z"/><path d="m383.5 136.5c0-4.143-3.357-7.5-7.5-7.5h-54c-4.143 0-7.5 3.357-7.5 7.5v50c0 4.143 3.357 7.5 7.5 7.5h54c4.143 0 7.5-3.357 7.5-7.5zm-15 42.5h-39v-35h39z"/><path d="m290.5 136.5c0-4.143-3.357-7.5-7.5-7.5h-54c-4.142 0-7.5 3.357-7.5 7.5v50c0 4.143 3.358 7.5 7.5 7.5h54c4.143 0 7.5-3.357 7.5-7.5zm-15 42.5h-39v-35h39z"/><path d="m197.5 222.5c0-4.143-3.358-7.5-7.5-7.5h-54c-4.142 0-7.5 3.357-7.5 7.5v50c0 4.143 3.358 7.5 7.5 7.5h54c4.142 0 7.5-3.357 7.5-7.5zm-15 42.5h-39v-35h39z"/><path d="m383.5 222.5c0-4.143-3.357-7.5-7.5-7.5h-54c-4.143 0-7.5 3.357-7.5 7.5v50c0 4.143 3.357 7.5 7.5 7.5h54c4.143 0 7.5-3.357 7.5-7.5zm-15 42.5h-39v-35h39z"/><path d="m290.5 222.5c0-4.143-3.357-7.5-7.5-7.5h-54c-4.142 0-7.5 3.357-7.5 7.5v50c0 4.143 3.358 7.5 7.5 7.5h54c4.143 0 7.5-3.357 7.5-7.5zm-15 42.5h-39v-35h39z"/><path d="m190 302h-54c-4.142 0-7.5 3.357-7.5 7.5v50c0 4.143 3.358 7.5 7.5 7.5h54c4.142 0 7.5-3.357 7.5-7.5v-50c0-4.143-3.358-7.5-7.5-7.5zm-7.5 50h-39v-35h39z"/><path d="m376 302h-54c-4.143 0-7.5 3.357-7.5 7.5v50c0 4.143 3.357 7.5 7.5 7.5h54c4.143 0 7.5-3.357 7.5-7.5v-50c0-4.143-3.357-7.5-7.5-7.5zm-7.5 50h-39v-35h39z"/><path d="m283 302h-54c-4.142 0-7.5 3.357-7.5 7.5v50c0 4.143 3.358 7.5 7.5 7.5h54c4.143 0 7.5-3.357 7.5-7.5v-50c0-4.143-3.357-7.5-7.5-7.5zm-7.5 50h-39v-35h39z"/><path d="m488.5 465h-68v-17.135c0-4.143-3.357-7.5-7.5-7.5s-7.5 3.357-7.5 7.5v17.135h-51v-72.5c0-4.143-3.357-7.5-7.5-7.5h-182c-4.142 0-7.5 3.357-7.5 7.5v72.5h-51v-305.041c0-4.143-3.358-7.5-7.5-7.5s-7.5 3.357-7.5 7.5v305.041h-68c-12.958 0-23.5 10.542-23.5 23.5s10.542 23.5 23.5 23.5h465c12.958 0 23.5-10.542 23.5-23.5s-10.542-23.5-23.5-23.5zm-149-65v65h-19v-65zm-133 65v-65h99v65zm-34-65h19v65h-19zm316 97h-465c-4.687 0-8.5-3.813-8.5-8.5s3.813-8.5 8.5-8.5h465c4.687 0 8.5 3.813 8.5 8.5s-3.813 8.5-8.5 8.5z"/><path d="m43.385 459.11c4.142 0 7.5-3.357 7.5-7.5v-7.5c0-4.143-3.358-7.5-7.5-7.5s-7.5 3.357-7.5 7.5v7.5c0 4.143 3.358 7.5 7.5 7.5z"/><path d="m476.115 398.235c0-4.143-3.357-7.5-7.5-7.5s-7.5 3.357-7.5 7.5v15.259c0 4.143 3.357 7.5 7.5 7.5s7.5-3.357 7.5-7.5z"/><path d="m362.751 15h15.259c4.143 0 7.5-3.357 7.5-7.5s-3.357-7.5-7.5-7.5h-15.259c-4.143 0-7.5 3.357-7.5 7.5s3.357 7.5 7.5 7.5z"/><path d="m271.199 15h15.258c4.143 0 7.5-3.357 7.5-7.5s-3.357-7.5-7.5-7.5h-15.258c-4.143 0-7.5 3.357-7.5 7.5s3.358 7.5 7.5 7.5z"/><path d="m316.975 15h15.259c4.143 0 7.5-3.357 7.5-7.5s-3.357-7.5-7.5-7.5h-15.259c-4.143 0-7.5 3.357-7.5 7.5s3.357 7.5 7.5 7.5z"/><path d="m225.423 15h15.259c4.142 0 7.5-3.357 7.5-7.5s-3.358-7.5-7.5-7.5h-15.259c-4.142 0-7.5 3.357-7.5 7.5s3.358 7.5 7.5 7.5z"/><path d="m476.115 352.46c0-4.143-3.357-7.5-7.5-7.5s-7.5 3.357-7.5 7.5v15.258c0 4.143 3.357 7.5 7.5 7.5s7.5-3.357 7.5-7.5z"/><path d="m448.41 53.916c1.426 2.265 3.863 3.507 6.355 3.507 1.365 0 2.746-.372 3.987-1.152 3.506-2.206 4.56-6.836 2.354-10.343-2.923-4.645-6.261-9.077-9.922-13.174-2.759-3.086-7.501-3.356-10.59-.594-3.088 2.76-3.354 7.501-.594 10.59 3.104 3.472 5.934 7.229 8.41 11.166z"/><path d="m405.48 19.643c4.385 1.534 8.675 3.458 12.75 5.716 1.152.639 2.399.941 3.629.941 2.638 0 5.197-1.395 6.566-3.865 2.008-3.623.699-8.188-2.924-10.195-4.815-2.669-9.885-4.941-15.068-6.755-3.909-1.369-8.188.693-9.556 4.603s.693 8.186 4.603 9.555z"/><path d="m459.059 79.636c1.025 4.521 1.675 9.177 1.93 13.84.219 3.996 3.528 7.09 7.482 7.09.138 0 .277-.004.417-.011 4.136-.227 7.305-3.763 7.079-7.899-.302-5.501-1.068-10.998-2.279-16.338-.917-4.041-4.938-6.568-8.974-5.655-4.039.916-6.571 4.933-5.655 8.973z"/><path d="m476.115 215.131c0-4.143-3.357-7.5-7.5-7.5s-7.5 3.357-7.5 7.5v15.259c0 4.143 3.357 7.5 7.5 7.5s7.5-3.357 7.5-7.5z"/><path d="m476.115 306.684c0-4.143-3.357-7.5-7.5-7.5s-7.5 3.357-7.5 7.5v15.259c0 4.143 3.357 7.5 7.5 7.5s7.5-3.357 7.5-7.5z"/><path d="m476.115 123.579c0-4.143-3.357-7.5-7.5-7.5s-7.5 3.357-7.5 7.5v15.259c0 4.143 3.357 7.5 7.5 7.5s7.5-3.357 7.5-7.5z"/><path d="m476.115 169.355c0-4.143-3.357-7.5-7.5-7.5s-7.5 3.357-7.5 7.5v15.259c0 4.143 3.357 7.5 7.5 7.5s7.5-3.357 7.5-7.5z"/><path d="m476.115 260.907c0-4.143-3.357-7.5-7.5-7.5s-7.5 3.357-7.5 7.5v15.259c0 4.143 3.357 7.5 7.5 7.5s7.5-3.357 7.5-7.5z"/><path d="m43.385 329.542c4.142 0 7.5-3.357 7.5-7.5v-15.259c0-4.143-3.358-7.5-7.5-7.5s-7.5 3.357-7.5 7.5v15.259c0 4.143 3.358 7.5 7.5 7.5z"/><path d="m43.385 283.766c4.142 0 7.5-3.357 7.5-7.5v-15.259c0-4.143-3.358-7.5-7.5-7.5s-7.5 3.357-7.5 7.5v15.259c0 4.142 3.358 7.5 7.5 7.5z"/><path d="m43.385 237.989c4.142 0 7.5-3.357 7.5-7.5v-15.259c0-4.143-3.358-7.5-7.5-7.5s-7.5 3.357-7.5 7.5v15.259c0 4.143 3.358 7.5 7.5 7.5z"/><path d="m43.385 192.214c4.142 0 7.5-3.357 7.5-7.5v-15.259c0-4.143-3.358-7.5-7.5-7.5s-7.5 3.357-7.5 7.5v15.259c0 4.142 3.358 7.5 7.5 7.5z"/><path d="m43.385 421.094c4.142 0 7.5-3.357 7.5-7.5v-15.259c0-4.143-3.358-7.5-7.5-7.5s-7.5 3.357-7.5 7.5v15.259c0 4.142 3.358 7.5 7.5 7.5z"/><path d="m43.385 375.317c4.142 0 7.5-3.357 7.5-7.5v-15.259c0-4.143-3.358-7.5-7.5-7.5s-7.5 3.357-7.5 7.5v15.259c0 4.143 3.358 7.5 7.5 7.5z"/><path d="m53.203 56.355c1.239.777 2.617 1.148 3.979 1.148 2.496 0 4.936-1.244 6.36-3.514 2.472-3.938 5.298-7.699 8.4-11.179 2.757-3.091 2.485-7.832-.606-10.589-3.091-2.756-7.833-2.486-10.589.606-3.659 4.104-6.994 8.54-9.91 13.187-2.202 3.51-1.143 8.139 2.366 10.341z"/><path d="m90.057 26.347c1.232 0 2.482-.304 3.635-.944 4.068-2.26 8.352-4.187 12.733-5.726 3.908-1.373 5.963-5.654 4.589-9.563-1.373-3.908-5.654-5.963-9.562-4.59-5.177 1.819-10.239 4.096-15.045 6.765-3.621 2.012-4.926 6.578-2.914 10.198 1.371 2.468 3.928 3.86 6.564 3.86z"/><path d="m133.871 15h15.259c4.142 0 7.5-3.357 7.5-7.5s-3.358-7.5-7.5-7.5h-15.259c-4.142 0-7.5 3.357-7.5 7.5s3.358 7.5 7.5 7.5z"/><path d="m43.115 100.655c.137.008.272.011.408.011 3.958 0 7.269-3.1 7.483-7.099.25-4.66.894-9.317 1.915-13.842.911-4.041-1.625-8.056-5.666-8.967-4.044-.909-8.056 1.626-8.967 5.666-1.205 5.344-1.965 10.841-2.26 16.34-.222 4.136 2.951 7.67 7.087 7.891z"/><path d="m43.385 146.438c4.142 0 7.5-3.357 7.5-7.5v-15.259c0-4.143-3.358-7.5-7.5-7.5s-7.5 3.357-7.5 7.5v15.259c0 4.142 3.358 7.5 7.5 7.5z"/><path d="m179.646 15h15.259c4.142 0 7.5-3.357 7.5-7.5s-3.358-7.5-7.5-7.5h-15.259c-4.142 0-7.5 3.357-7.5 7.5s3.358 7.5 7.5 7.5z"/><path d="m468.615 436.61c-4.143 0-7.5 3.357-7.5 7.5v7.5c0 4.143 3.357 7.5 7.5 7.5s7.5-3.357 7.5-7.5v-7.5c0-4.142-3.357-7.5-7.5-7.5z"/><path d="m149.397 32.739v56.261h-50.397c-4.142 0-7.5 3.357-7.5 7.5v30.994c0 4.143 3.358 7.5 7.5 7.5s7.5-3.357 7.5-7.5v-23.494h299v311.493c0 4.143 3.357 7.5 7.5 7.5s7.5-3.357 7.5-7.5v-318.993c0-4.143-3.357-7.5-7.5-7.5h-22.5v-36.5c0-4.143-3.357-7.5-7.5-7.5h-18.343c-4.143 0-7.5 3.357-7.5 7.5s3.357 7.5 7.5 7.5h10.843v29h-101v-29h57.786c4.143 0 7.5-3.357 7.5-7.5s-3.357-7.5-7.5-7.5h-65.286c-4.143 0-7.5 3.357-7.5 7.5v36.5h-62v-25.641c0-4.143-3.358-7.5-7.5-7.5s-7.5 3.357-7.5 7.5v25.641h-18.103v-56.261c0-4.143-3.358-7.5-7.5-7.5s-7.5 3.358-7.5 7.5z"/></g></g></svg>