<?xml version="1.0" encoding="UTF-8" standalone="no"?>
<svg
   xmlns:dc="http://purl.org/dc/elements/1.1/"
   xmlns:cc="http://creativecommons.org/ns#"
   xmlns:rdf="http://www.w3.org/1999/02/22-rdf-syntax-ns#"
   xmlns:svg="http://www.w3.org/2000/svg"
   xmlns="http://www.w3.org/2000/svg"
   xmlns:sodipodi="http://sodipodi.sourceforge.net/DTD/sodipodi-0.dtd"
   xmlns:inkscape="http://www.inkscape.org/namespaces/inkscape"
   inkscape:version="1.0 (4035a4f, 2020-05-01)"
   sodipodi:docname="boeing.svg"
   width="32"
   height="32"
   viewBox="0 0 82.645279 68.067498"
   id="svg49749"
   version="1.1">
  <sodipodi:namedview
     inkscape:current-layer="layer1"
     inkscape:window-maximized="0"
     inkscape:window-y="23"
     inkscape:window-x="0"
     inkscape:cy="40.603088"
     inkscape:cx="98.908762"
     inkscape:zoom="3.6533333"
     fit-margin-bottom="0"
     fit-margin-right="0"
     fit-margin-left="0"
     fit-margin-top="0"
     showgrid="false"
     id="namedview615"
     inkscape:window-height="745"
     inkscape:window-width="1361"
     inkscape:pageshadow="2"
     inkscape:pageopacity="0"
     guidetolerance="10"
     gridtolerance="10"
     objecttolerance="10"
     borderopacity="1"
     bordercolor="#666666"
     pagecolor="#ffffff" />
  <defs
     id="defs49751">
    <clipPath
       clipPathUnits="userSpaceOnUse"
       id="clipPath49125">
      <path
         d="M 692.697,746 H 866.43 v 54.294 H 692.697 Z"
         id="path49127" />
    </clipPath>
    <clipPath
       clipPathUnits="userSpaceOnUse"
       id="clipPath49101">
      <path
         d="m 706.23,757.475 h 145.453 v 33.224 H 706.23 Z"
         id="path49103" />
    </clipPath>
  </defs>
  <metadata
     id="metadata49754">
    <rdf:RDF>
      <cc:Work
         rdf:about="">
        <dc:format>image/svg+xml</dc:format>
        <dc:type
           rdf:resource="http://purl.org/dc/dcmitype/StillImage" />
        <dc:title></dc:title>
      </cc:Work>
    </rdf:RDF>
  </metadata>
  <g
     id="layer1"
     transform="translate(-414.80671,-485.05942)">
    <g
       transform="matrix(2.0487844,0,0,-2.0487844,-1032.1063,2105.0312)"
       id="g49097">
      <g
         id="g49099"
         clip-path="url(#clipPath49101)">
        <g
           id="g49105"
           transform="translate(717.83569,765.202)">
          <path
             d="m 0,0 c -2.386,0 -4.579,0.817 -6.318,2.187 2.022,4.564 6.142,10.687 11.76,16.667 2.868,-1.809 4.773,-5.003 4.773,-8.643 0,-1.554 -0.35,-3.028 -0.971,-4.347 C 7.462,6.689 5.8,7.721 4.39,9.024 L 7.468,3.246 C 5.603,1.248 2.949,0 0,0 m -10.212,10.211 c 0,5.643 4.571,10.214 10.212,10.214 1.512,0 2.945,-0.329 4.239,-0.917 C -1.296,14.616 -5.582,8.93 -8.118,4.016 -9.431,5.737 -10.212,7.88 -10.212,10.211 M 10.527,5.316 c 0.695,1.487 1.081,3.147 1.081,4.895 0,4.035 -2.059,7.589 -5.185,9.669 1.862,1.916 3.877,3.809 6.022,5.618 C 9.931,24.019 7.569,22.326 5.386,20.497 3.777,21.341 1.944,21.821 0,21.821 c -6.409,0 -11.606,-5.2 -11.606,-11.61 0,-2.893 1.06,-5.543 2.813,-7.573 -2.224,-4.809 -2.613,-8.671 -0.653,-9.977 2.097,-1.399 6.659,1.137 9.397,5.267 0,0 -4.234,-3.82 -6.56,-2.944 -1.431,0.542 -1.436,2.731 -0.256,5.87 1.924,-1.414 4.296,-2.249 6.865,-2.249 3.181,0 6.06,1.278 8.157,3.348 L 8.569,1.177 c 5.059,0.411 20.164,0.811 20.164,0.811 0,0.725 -10.001,0.067 -18.206,3.328"
             style="fill:#1d439c;fill-opacity:1;fill-rule:nonzero;stroke:none"
             id="path49107" />
        </g>
      </g>
    </g>
  </g>
</svg>
