<?xml version="1.0" encoding="UTF-8" standalone="no"?>
<svg
   xmlns:dc="http://purl.org/dc/elements/1.1/"
   xmlns:cc="http://creativecommons.org/ns#"
   xmlns:rdf="http://www.w3.org/1999/02/22-rdf-syntax-ns#"
   xmlns:svg="http://www.w3.org/2000/svg"
   xmlns="http://www.w3.org/2000/svg"
   xmlns:sodipodi="http://sodipodi.sourceforge.net/DTD/sodipodi-0.dtd"
   xmlns:inkscape="http://www.inkscape.org/namespaces/inkscape"
   inkscape:version="1.0 (4035a4f, 2020-05-01)"
   sodipodi:docname="chariot.svg"
   version="1.1"
   viewBox="0 0 33.372726 36.410307"
   height="36"
   width="36"
   data-name="Layer 1"
   id="Layer_1">
  <metadata
     id="metadata885">
    <rdf:RDF>
      <cc:Work
         rdf:about="">
        <dc:format>image/svg+xml</dc:format>
        <dc:type
           rdf:resource="http://purl.org/dc/dcmitype/StillImage" />
        <dc:title></dc:title>
      </cc:Work>
    </rdf:RDF>
  </metadata>
  <sodipodi:namedview
     inkscape:current-layer="Layer_1"
     inkscape:window-maximized="0"
     inkscape:window-y="23"
     inkscape:window-x="0"
     inkscape:cy="10.632568"
     inkscape:cx="13.17686"
     inkscape:zoom="16.704545"
     fit-margin-bottom="0"
     fit-margin-right="0"
     fit-margin-left="0"
     fit-margin-top="0"
     showgrid="false"
     id="namedview883"
     inkscape:window-height="858"
     inkscape:window-width="1067"
     inkscape:pageshadow="2"
     inkscape:pageopacity="0"
     guidetolerance="10"
     gridtolerance="10"
     objecttolerance="10"
     borderopacity="1"
     bordercolor="#666666"
     pagecolor="#ffffff" />
  <defs
     id="defs860">
    <style
       id="style858">.cls-1{fill:#0075bf;}.cls-2{fill:#004b85;}</style>
  </defs>
  <path
     id="path862"
     d="m 1.9719245,19.9531 a 3.396,3.396 0 0 0 0.313,-2.7578 6.3113,6.3113 0 0 0 -0.2925,-0.835 8.25,8.25 0 0 1 -3.3008,-2.8994 c -0.6694,0.7119 -2.29,2.8535 0.0562,4.9473 a 7.633,7.633 0 0 0 3.2241,1.5449"
     class="cls-1" />
  <path
     id="path864"
     d="m 0.62032452,23.3652 0.89849998,0.2344 a 1.9253,1.9253 0 0 0 1.1831,-0.0019 c 0.0068,-0.01 0.0356,-0.0293 0.0356,-0.1426 a 2.1835,2.1835 0 0 0 -0.0693,-0.502 5.4019,5.4019 0 0 0 -0.9126,-1.7392 8.2958,8.2958 0 0 1 -4.4986,-2.5049 c -0.1455,1.2969 -0.2993,5.7558 5.0547,11.2383 l -1.58719998,-5.6582 -0.1045,-0.9239"
     class="cls-1" />
  <path
     id="path866"
     d="m 3.8381245,12.0566 v 0.1211 a 3.0962,3.0962 0 0 1 -1.1914,2.6211 l -0.3067,0.3233 A 7.1977,7.1977 0 0 1 -0.36157548,12.5762 C -1.0295755,10.7227 1.8806245,7.7588 1.8806245,7.7588 a 8.2408,8.2408 0 0 0 1.9575,4.2978"
     class="cls-1" />
  <path
     id="path868"
     d="m 12.343025,0.8496 c -1.7271,1.2539 0.3344,3.3281 0.3344,3.3281 a 3.8131,3.8131 0 0 1 0.8418,0.0352 16.7393,16.7393 0 0 1 2.0494,0.4863 6.4235,6.4235 0 0 1 -1.9488,-4.417 3.084,3.084 0 0 0 -1.2768,0.5674"
     class="cls-2" />
  <path
     id="path870"
     d="m 3.7819245,9.0332 c 0.2857,0.68 0.668,1.48 1.17,2.418 a 5.82,5.82 0 0 0 0.94,-0.2774 6.8154,6.8154 0 0 0 1.2608,-0.8086 1.5509,1.5509 0 0 0 0.4379,-0.8847 c -0.1254,-0.2618 -0.46,-0.9668 -0.46,-0.9668 a 11.5215,11.5215 0 0 1 -0.8838,-2.1465 5.0834,5.0834 0 0 1 -0.1182,-1.8643 c -2.353,1.585 -2.6386,3.1455 -2.3462,4.53"
     class="cls-1" />
  <path
     id="path872"
     d="m 7.8903245,3.7421 a 3.5758,3.5758 0 0 0 1.2042,3.0177 c 0,0 -0.3057,0.166 -1.5733,-0.7188 1.3364,4.1709 4.6167005,3.7559 4.6167005,3.7559 a 10.3319,10.3319 0 0 1 0.125,-2.2032 c 0.502,-2.1972 -0.3618,-1.8564 -1.0864,-3.1953 A 4.0044,4.0044 0 0 1 11.198525,0 C 7.8903245,1.5664 7.8903245,3.7421 7.8903245,3.7421 Z"
     class="cls-2" />
  <path
     id="path874"
     d="m 29.217525,22.1934 a 16.5972,16.5972 0 0 1 -3.2656,-4.6758 6.6473,6.6473 0 0 0 -2.8409,-2.9131 c -1.8725,-3.5908 -1.7407,-8.2041 -9.8242,-9.4483 -0.2939,1.9 0.3682,2.7715 -0.1675,4.7344 -0.3,1.1074 -1.3369,1.4727 -2.25,2.3457 -0.8071,0.9121 -1.9770005,2.9785 -0.9883005,6.7959 1.3370005,5.1709 8.7793005,7.4619 11.4463005,7.9658 0.7662,0.0957 1.5738,0.17 2.4375,0.209 0.4175,-0.0742 0.6626,-0.1133 0.8008,-0.1367 a 2.7422,2.7422 0 0 1 0.7656,0.2813 c 3.315,-2.168 3.8438,-4.2237 3.8863,-5.1582 z m -7.0884,-5.3379 c -4.2895,-0.8008 -4.08,-2.68 -4.08,-2.68 2.1861,0.3886 2.77,0.1133 3.4951,0.8828 0.7168,0.77 0.2369,1.1055 0.585,1.7969"
     class="cls-2" />
  <path
     id="path876"
     d="m 3.7331245,31.2676 a 21.916,21.916 0 0 0 23.6323005,2.9638 c -2.5068,-2.7763 -3.7119,-4.9462 -6.7959,-6.0947 a 23.5333,23.5333 0 0 1 -2.5288,-0.7129 13.051,13.051 0 0 1 -4.7334,-2.248 10.2272,10.2272 0 0 1 -4.6582005,-5.8262 c -1.247,-4.82 0.5782,-7.3223 1.6006005,-8.292 -0.2925005,-0.3242 -0.7378005,-0.78 -1.3926005,-1.416 -0.0068,0.0625 -0.02,0.123 -0.0273,0.1846 0.0561,2.6113 -3.2578,2.998 -3.8023,3.042 a 4.36,4.36 0 0 1 -1.4819,2.8239 c 0,0 -0.168,0.1806 -0.3345,0.3545 a 8.5394,8.5394 0 0 1 0.3057,0.8447 4.5893,4.5893 0 0 1 -0.5425,3.8447 6.1188,6.1188 0 0 1 0.919,1.8906 3.2,3.2 0 0 1 0.1118,0.8155 1.3751,1.3751 0 0 1 -0.5308,1.1582 2.1152,2.1152 0 0 1 -1.3926,0.3506 0.7345,0.7345 0 0 1 0.0152,0.1338 c 0.2231,0.6816 0.8486,2.7451 1.5176,5.5966 0.0488,0.2051 0.09,0.3995 0.1186,0.586"
     class="cls-2" />
  <path
     id="path878"
     d="m 20.123225,27.9785 c -0.6962,-0.2217 -1.371,-0.3682 -2.0825,-0.5547 a 23.5333,23.5333 0 0 0 2.5288,0.7129 c -0.1455,-0.0547 -0.2924,-0.1084 -0.4463,-0.1582"
     class="cls-2" />
  <path
     id="path880"
     d="m 33.550025,24.3965 a 1.0558,1.0558 0 0 0 -0.5454,-0.4483 1.5765,1.5765 0 0 0 -1.4058,-0.21 l -0.0424,-0.0225 -0.9112,-0.4619 c -0.3413,1.4121 -1.3857,3.3984 -4.3247,5.35 a 3.6935,3.6935 0 0 1 0.0283,1.7813 2.2367,2.2367 0 0 1 0.8843,0.1914 c 0.835,0.8486 1.3994,1.0605 1.9639,0.8906 1.5664,-0.083 4.1152,-2.2969 4.1152,-2.2969 0,0 0.4912,-1.3 0.6367,-1.9 l 0.0122,0.0108 a 3.2237,3.2237 0 0 0 -0.4111,-2.8845 z m -2.3892,0.81 c 0.14,-0.77 1.1832,-0.5654 1.9024,-0.3261 0.1133,0.1562 0.1987,0.4941 -0.2568,1.1191 l -0.7613,0.2822 a 0.8059,0.8059 0 0 1 -0.8843,-1.0747 z"
     class="cls-2" />
</svg>
