<svg id="Layer_1" data-name="Layer 1" xmlns="http://www.w3.org/2000/svg" width="44" height="44" viewBox="0 0 52.4662 58.048"><defs><style>.cls-1{fill:#0075bf;}.cls-2{fill:#004b85;}</style></defs><path class="cls-1" d="M12.4274,31.001a3.396,3.396,0,0,0,.313-2.7578,6.3113,6.3113,0,0,0-.2925-.835,8.25,8.25,0,0,1-3.3008-2.8994c-.6694.7119-2.29,2.8535.0562,4.9473a7.633,7.633,0,0,0,3.2241,1.5449"/><path class="cls-1" d="M11.0758,34.4131l.8985.2344a1.9253,1.9253,0,0,0,1.1831-.0019c.0068-.01.0356-.0293.0356-.1426a2.1835,2.1835,0,0,0-.0693-.502,5.4019,5.4019,0,0,0-.9126-1.7392,8.2958,8.2958,0,0,1-4.4986-2.5049c-.1455,1.2969-.2993,5.7558,5.0547,11.2383L11.18,35.337l-.1045-.9239"/><path class="cls-1" d="M14.2936,23.1045v.1211a3.0962,3.0962,0,0,1-1.1914,2.6211l-.3067.3233a7.1977,7.1977,0,0,1-2.7016-2.5459c-.668-1.8535,2.2422-4.8174,2.2422-4.8174a8.2408,8.2408,0,0,0,1.9575,4.2978"/><path class="cls-2" d="M22.7985,11.8975c-1.7271,1.2539.3344,3.3281.3344,3.3281a3.8131,3.8131,0,0,1,.8418.0352,16.7393,16.7393,0,0,1,2.0494.4863,6.4235,6.4235,0,0,1-1.9488-4.417,3.084,3.084,0,0,0-1.2768.5674"/><path class="cls-1" d="M14.2374,20.0811c.2857.68.668,1.48,1.17,2.418a5.82,5.82,0,0,0,.94-.2774,6.8154,6.8154,0,0,0,1.2608-.8086,1.5509,1.5509,0,0,0,.4379-.8847c-.1254-.2618-.46-.9668-.46-.9668a11.5215,11.5215,0,0,1-.8838-2.1465,5.0834,5.0834,0,0,1-.1182-1.8643c-2.353,1.585-2.6386,3.1455-2.3462,4.53"/><path class="cls-2" d="M18.3458,14.79A3.5758,3.5758,0,0,0,19.55,17.8077s-.3057.166-1.5733-.7188c1.3364,4.1709,4.6167,3.7559,4.6167,3.7559a10.3319,10.3319,0,0,1,.125-2.2032c.502-2.1972-.3618-1.8564-1.0864-3.1953a4.0044,4.0044,0,0,1,.022-4.3984C18.3458,12.6143,18.3458,14.79,18.3458,14.79Z"/><path class="cls-2" d="M39.673,33.2413a16.5972,16.5972,0,0,1-3.2656-4.6758,6.6473,6.6473,0,0,0-2.8409-2.9131c-1.8725-3.5908-1.7407-8.2041-9.8242-9.4483-.2939,1.9.3682,2.7715-.1675,4.7344-.3,1.1074-1.3369,1.4727-2.25,2.3457-.8071.9121-1.977,2.9785-.9883,6.7959,1.337,5.1709,8.7793,7.4619,11.4463,7.9658.7662.0957,1.5738.17,2.4375.209.4175-.0742.6626-.1133.8008-.1367a2.7422,2.7422,0,0,1,.7656.2813C39.1017,36.2315,39.6305,34.1758,39.673,33.2413Zm-7.0884-5.3379c-4.2895-.8008-4.08-2.68-4.08-2.68,2.1861.3886,2.77.1133,3.4951.8828.7168.77.2369,1.1055.585,1.7969"/><path class="cls-2" d="M14.1886,42.3155a21.916,21.916,0,0,0,23.6323,2.9638c-2.5068-2.7763-3.7119-4.9462-6.7959-6.0947a23.5333,23.5333,0,0,1-2.5288-.7129,13.051,13.051,0,0,1-4.7334-2.248,10.2272,10.2272,0,0,1-4.6582-5.8262c-1.247-4.82.5782-7.3223,1.6006-8.292-.2925-.3242-.7378-.78-1.3926-1.416-.0068.0625-.02.123-.0273.1846.0561,2.6113-3.2578,2.998-3.8023,3.042A4.36,4.36,0,0,1,14.0011,26.74s-.168.1806-.3345.3545a8.5394,8.5394,0,0,1,.3057.8447,4.5893,4.5893,0,0,1-.5425,3.8447,6.1188,6.1188,0,0,1,.919,1.8906,3.2,3.2,0,0,1,.1118.8155,1.3751,1.3751,0,0,1-.5308,1.1582,2.1152,2.1152,0,0,1-1.3926.3506.7345.7345,0,0,1,.0152.1338c.2231.6816.8486,2.7451,1.5176,5.5966.0488.2051.09.3995.1186.586"/><path class="cls-2" d="M30.5787,39.0264c-.6962-.2217-1.371-.3682-2.0825-.5547a23.5333,23.5333,0,0,0,2.5288.7129c-.1455-.0547-.2924-.1084-.4463-.1582"/><path class="cls-2" d="M44.0055,35.4444a1.0558,1.0558,0,0,0-.5454-.4483,1.5765,1.5765,0,0,0-1.4058-.21l-.0424-.0225-.9112-.4619c-.3413,1.4121-1.3857,3.3984-4.3247,5.35a3.6935,3.6935,0,0,1,.0283,1.7813,2.2367,2.2367,0,0,1,.8843.1914c.835.8486,1.3994,1.0605,1.9639.8906,1.5664-.083,4.1152-2.2969,4.1152-2.2969s.4912-1.3.6367-1.9l.0122.0108A3.2237,3.2237,0,0,0,44.0055,35.4444Zm-2.3892.81c.14-.77,1.1832-.5654,1.9024-.3261.1133.1562.1987.4941-.2568,1.1191l-.7613.2822A.8059.8059,0,0,1,41.6163,36.2549Z"/></svg>