<svg id="Layer_1" enable-background="new 0 0 512 512" height="28" viewBox="0 0 512 512" width="28" xmlns="http://www.w3.org/2000/svg"><g><path d="m345.972 318.697c4.143 0 7.5-3.357 7.5-7.5s-3.357-7.5-7.5-7.5h-92.288c-4.142 0-7.5 3.357-7.5 7.5s3.358 7.5 7.5 7.5z"/><path d="m217.214 311.197c0-4.143-3.358-7.5-7.5-7.5h-.057c-4.142 0-7.472 3.357-7.472 7.5s3.386 7.5 7.528 7.5 7.501-3.357 7.501-7.5z"/><path d="m166.028 303.697c-4.142 0-7.472 3.357-7.472 7.5s3.386 7.5 7.528 7.5 7.5-3.357 7.5-7.5-3.358-7.5-7.5-7.5z"/><path d="m345.972 213.276h-92.288c-4.142 0-7.5 3.357-7.5 7.5s3.358 7.5 7.5 7.5h92.288c4.143 0 7.5-3.357 7.5-7.5s-3.358-7.5-7.5-7.5z"/><path d="m209.714 213.276h-.057c-4.142 0-7.472 3.357-7.472 7.5s3.386 7.5 7.528 7.5 7.5-3.357 7.5-7.5-3.357-7.5-7.499-7.5z"/><path d="m166.085 213.276h-.057c-4.142 0-7.472 3.357-7.472 7.5s3.386 7.5 7.528 7.5 7.5-3.357 7.5-7.5-3.357-7.5-7.499-7.5z"/><path d="m476.801 447.551c-15.174 0-27.922 10.563-31.31 24.725h-104.668v-10.624c0-7.775-6.335-14.101-14.122-14.101h-38.487v-24.879c0-7.838-6.374-14.215-14.208-14.215h-10.492v-44.095h118.128c8.305 0 15.061-6.772 15.061-15.097v-37.653h12.51c39.946 0 72.445-32.529 72.445-72.513 0-25.374-13.533-49.073-34.973-62.094 2.369-8.033 3.566-16.386 3.566-24.913 0-48.486-39.396-87.934-87.822-87.934-3.885 0-7.764.258-11.596.77-6.909-17.851-18.615-33.251-34.138-44.823-17.641-13.153-38.625-20.105-60.681-20.105-22.068 0-43.061 6.952-60.706 20.104-15.525 11.573-27.234 26.977-34.144 44.83-23.917-3.195-47.996 3.538-66.946 18.917-20.635 16.747-32.469 41.62-32.469 68.241 0 8.527 1.197 16.88 3.565 24.913-21.439 13.021-34.973 36.72-34.973 62.094 0 39.983 32.499 72.513 72.446 72.513h12.509v37.653c0 8.324 6.756 15.097 15.061 15.097h35.699c4.142 0 7.5-3.357 7.5-7.5s-3.358-7.5-7.5-7.5l-35.687.003c-.001 0-.072-.042-.072-.1v-75.324h251.405v75.324c0 .055-.063.095-.061.097h-180.88c-4.142 0-7.5 3.357-7.5 7.5s3.358 7.5 7.5 7.5h47.753v44.095h-10.52c-7.834 0-14.208 6.377-14.208 14.215v24.879h-38.488c-7.787 0-14.123 6.325-14.123 14.101v10.624h-104.666c-3.387-14.162-16.135-24.725-31.31-24.725-17.755 0-32.199 14.456-32.199 32.224s14.444 32.225 32.199 32.225c15.174 0 27.922-10.563 31.31-24.725h104.668v10.596c0 7.791 6.335 14.129 14.123 14.129h141.402c7.787 0 14.122-6.338 14.122-14.129v-10.596h104.668c3.387 14.162 16.135 24.725 31.31 24.725 17.754 0 32.198-14.456 32.198-32.225s-14.444-32.224-32.199-32.224zm-346.504-188.61v-75.323c0-.055.063-.095.062-.097h35.698c4.142 0 7.5-3.357 7.5-7.5s-3.358-7.5-7.5-7.5h-35.699c-8.304 0-15.061 6.772-15.061 15.097v112.994h-12.509c-31.676 0-57.446-25.8-57.446-57.513 0-22.238 12.399-42.079 32.359-51.781 3.49-1.696 5.11-5.774 3.734-9.403-3.109-8.203-4.686-16.891-4.686-25.822 0-22.081 9.813-42.708 26.922-56.594 17.151-13.92 39.358-19.302 60.927-14.765 3.778.791 7.536-1.406 8.696-5.084 11.442-36.277 44.685-60.65 82.72-60.65 38.019 0 71.25 24.374 82.692 60.65 1.162 3.686 4.931 5.877 8.715 5.08 4.895-1.043 9.944-1.571 15.008-1.571 40.154 0 72.822 32.718 72.822 72.934 0 8.931-1.577 17.618-4.687 25.822-1.376 3.628.244 7.707 3.734 9.403 19.959 9.702 32.358 29.543 32.358 51.781 0 31.713-25.77 57.513-57.445 57.513h-12.51v-112.994c0-8.324-6.756-15.097-15.061-15.097h-180.879c-4.142 0-7.5 3.357-7.5 7.5s3.358 7.5 7.5 7.5l180.87-.003s.071.042.071.1v75.323zm-95.098 238.059c-9.484 0-17.199-7.727-17.199-17.225s7.715-17.225 17.199-17.225 17.199 7.727 17.199 17.225-7.715 17.225-17.199 17.225zm290.624 0h-139.647v-34.449h45.11c4.142 0 7.5-3.357 7.5-7.5v-31.594h34.427v31.594c0 4.143 3.357 7.5 7.5 7.5h45.109v34.449zm150.978 0c-9.483 0-17.199-7.727-17.199-17.225s7.716-17.225 17.199-17.225 17.199 7.727 17.199 17.225-7.716 17.225-17.199 17.225z"/></g></svg>
