<?xml version="1.0" encoding="UTF-8" standalone="no"?>
<svg
   xmlns:dc="http://purl.org/dc/elements/1.1/"
   xmlns:cc="http://creativecommons.org/ns#"
   xmlns:rdf="http://www.w3.org/1999/02/22-rdf-syntax-ns#"
   xmlns:svg="http://www.w3.org/2000/svg"
   xmlns="http://www.w3.org/2000/svg"
   xmlns:sodipodi="http://sodipodi.sourceforge.net/DTD/sodipodi-0.dtd"
   xmlns:inkscape="http://www.inkscape.org/namespaces/inkscape"
   inkscape:version="1.0 (4035a4f, 2020-05-01)"
   height="36"
   width="36"
   sodipodi:docname="penn-state.svg"
   xml:space="preserve"
   viewBox="0 0 365.02054 251.38255"
   y="0px"
   x="0px"
   id="Layer_1"
   version="1.1"><metadata
   id="metadata2038"><rdf:RDF><cc:Work
       rdf:about=""><dc:format>image/svg+xml</dc:format><dc:type
         rdf:resource="http://purl.org/dc/dcmitype/StillImage" /><dc:title></dc:title></cc:Work></rdf:RDF></metadata><defs
   id="defs2036" /><sodipodi:namedview
   inkscape:current-layer="Layer_1"
   inkscape:window-maximized="0"
   inkscape:window-y="23"
   inkscape:window-x="0"
   inkscape:cy="125.71275"
   inkscape:cx="84.210187"
   inkscape:zoom="1.47"
   fit-margin-bottom="0"
   fit-margin-right="0"
   fit-margin-left="0"
   fit-margin-top="0"
   showgrid="false"
   id="namedview2034"
   inkscape:window-height="1005"
   inkscape:window-width="1680"
   inkscape:pageshadow="2"
   inkscape:pageopacity="0"
   guidetolerance="10"
   gridtolerance="10"
   objecttolerance="10"
   borderopacity="1"
   bordercolor="#666666"
   pagecolor="#ffffff" />
<style
   id="style2025"
   type="text/css">
	.st0{fill:#FFFFFF;}
	.st1{fill:#162952;}
</style>
<g
   transform="translate(-67.490493,-124.28725)"
   id="XMLID_1_">
	<path
   d="m 393.3,172.8 c 27,24.7 45,56.2 37.5,93.7 -10.2,56.3 -70.5,92.2 -121.4,102.9 -42.5,10.4 -92.3,7.1 -133,-4.3 -40.9,-12.9 -87.2,-40 -104.2,-83.7 -13.6,-40.7 3.5,-81.6 35.3,-108.6 44.1,-37 98.3,-51.2 158.5,-48.1 47.3,4.2 90.9,17.4 127.3,48.1"
   class="st0"
   id="XMLID_3_" />
	<path
   d="m 383.7,171.8 c 22.7,18.2 38.5,41.3 42.5,68.4 4.8,41.8 -21.4,77.2 -55.9,98.6 -46.3,28.1 -105.1,37.5 -162.6,27.5 -36.6,-6.3 -76.9,-30.8 -88.3,-69 -11.5,-33.5 -3.1,-71.5 21.5,-96.2 15.4,-16.8 33.8,-29.4 52.3,-39.6 H 191 c -31.5,7.2 -60.9,20.2 -84,46.7 -21.5,24.1 -23.6,64.6 -10.9,93.4 2.6,6.6 6.8,12.5 10.4,18.6 C 80.9,297.4 66.1,265 75.8,230.6 89.3,179.8 143.3,149 189.4,136.9 c 67.5,-16.4 141.2,-4.6 194.3,34.9"
   class="st1"
   id="XMLID_4_" />
	<path
   d="m 253,161.4 c 24.6,4.4 47.9,12 70.7,20.9 7.4,3.6 10.7,12.3 17,18.2 18.9,15.4 42.2,22.8 57.8,43.5 5.6,10.1 -0.1,20.4 -6,28.6 -11.5,10.1 -25,15.3 -37.8,22.3 -12.6,5.9 -25.2,11.7 -38.1,16.7 -1,0.5 0.2,1 0.9,1.6 l 0.8,0.6 c 18.2,-6.2 36.4,-12.4 54.2,-19.6 -1.8,6.3 -5.2,12.7 -8.1,18.9 -4.1,6.4 -7.4,19.9 -28.4,17.3 l -51.9,-8.1 c -24.9,6.2 -49,15.4 -76.5,13.7 -9.9,-0.9 -19.1,-5.7 -24.8,-14.6 -3.6,-6.6 -5.9,-14.1 -5.2,-22.4 1.3,1 2.3,2.8 3.4,4.2 24.5,28 67.9,22.8 100.9,16.3 22.7,-7.5 44.6,-16.5 65.5,-28.2 8.1,-5.6 13.4,-13.8 12.5,-23.8 -1.7,-20.5 -24.2,-32.7 -40.2,-40.2 -12.9,-4.5 -26.3,-8.4 -40.9,-7.9 l 32.3,-14.6 c 2.3,-0.6 3.3,1.6 4.2,3.1 1.2,3.2 1.5,7.3 -0.6,10.2 6,1.4 9.4,2.3 14.2,3.4 18.2,6.3 37.2,15.3 48.6,33.1 3.1,5.7 3.8,13.1 1.9,19.6 l 0.4,0.6 c 9.1,-3.1 12.4,-11 15,-20.4 -0.2,-10.8 -11.5,-17.1 -18.8,-23.5 -11.8,-8.8 -24.3,-15.7 -36.5,-23.6 -7.6,-4.5 -10.3,-14.4 -18.4,-17.7 -14.7,-4.7 -32.2,-1.9 -47.9,-1.2 -27.3,2.9 -52.7,10.3 -74.8,25.9 2.5,-19.8 7,-39.2 13.7,-57.3 3.2,-7.4 6.9,-16.7 15.5,-19.6 12.9,0.4 18.3,15.4 25.4,24"
   class="st0"
   id="XMLID_5_" />
	<path
   d="m 243.2,158.4 c 0.6,1.2 1.8,2.1 1.7,3.6 -15.3,6.3 -28,22.6 -36.1,36.3 h -0.4 c 2.2,-16.2 6.4,-31.6 13.4,-45.9 2,-2.7 3.2,-6.4 6.7,-7.7 7.5,0.5 10.2,8.9 14.7,13.7"
   class="st1"
   id="XMLID_6_" />
	<path
   d="m 403.4,343.1 c 0.6,0 1.2,0 1.9,-0.2 1.2,-0.4 1.7,-1.2 1.6,-2.2 -0.1,-1.4 -1.1,-1.8 -1.6,-1.8 h -1.4 c -0.3,0 -0.5,0.1 -0.5,0.6 m 0,7.7 c 0,0.6 0.7,0.8 1.3,0.8 v 0.5 h -4.3 V 348 c 0.6,0 1.3,-0.2 1.3,-0.7 v -7.7 c 0,-0.8 -0.1,-0.8 -1.2,-0.8 v -0.5 h 4.5 c 0.7,0 1.5,0 2.1,0.3 0.4,0.1 1.1,0.5 1.4,1.1 0.7,1.2 0.1,2.6 -0.5,3.1 -0.3,0.3 -1,0.7 -1.9,0.8 l 3.2,4.1 c 0.3,0.4 0.6,0.4 1,0.4 v 0.5 h -2.6 l -3.6,-4.8 h -0.7 z m 1.3,-11.6 c -4.5,0 -8.2,3.7 -8.2,8.2 0,4.5 3.7,8.2 8.2,8.2 4.5,0 8.2,-3.6 8.2,-8.2 0.1,-4.5 -3.6,-8.2 -8.2,-8.2 z m 0.1,17.5 c -5.1,0 -9.3,-4.1 -9.3,-9.3 0,-5.1 4.2,-9.3 9.3,-9.3 5.1,0 9.3,4.2 9.3,9.3 -0.1,5.2 -4.2,9.3 -9.3,9.3 z"
   class="st1"
   id="XMLID_11_" />
</g>
</svg>
