<?xml version="1.0" encoding="UTF-8" standalone="no"?>
<svg
   xmlns:dc="http://purl.org/dc/elements/1.1/"
   xmlns:cc="http://creativecommons.org/ns#"
   xmlns:rdf="http://www.w3.org/1999/02/22-rdf-syntax-ns#"
   xmlns:svg="http://www.w3.org/2000/svg"
   xmlns="http://www.w3.org/2000/svg"
   xmlns:sodipodi="http://sodipodi.sourceforge.net/DTD/sodipodi-0.dtd"
   xmlns:inkscape="http://www.inkscape.org/namespaces/inkscape"
   inkscape:version="1.0 (4035a4f, 2020-05-01)"
   height="36"
   width="36	"
   sodipodi:docname="drexel.svg"
   xml:space="preserve"
   viewBox="0 0 213.87854 151.06673"
   y="0px"
   x="0px"
   id="layer"
   version="1.1"><metadata
   id="metadata1017"><rdf:RDF><cc:Work
       rdf:about=""><dc:format>image/svg+xml</dc:format><dc:type
         rdf:resource="http://purl.org/dc/dcmitype/StillImage" /><dc:title></dc:title></cc:Work></rdf:RDF></metadata><defs
   id="defs1015" /><sodipodi:namedview
   inkscape:current-layer="layer"
   inkscape:window-maximized="0"
   inkscape:window-y="23"
   inkscape:window-x="0"
   inkscape:cy="75.20903"
   inkscape:cx="256.72041"
   inkscape:zoom="1.1273006"
   fit-margin-bottom="0"
   fit-margin-right="0"
   fit-margin-left="0"
   fit-margin-top="0"
   showgrid="false"
   id="namedview1013"
   inkscape:window-height="1005"
   inkscape:window-width="1680"
   inkscape:pageshadow="2"
   inkscape:pageopacity="0"
   guidetolerance="10"
   gridtolerance="10"
   objecttolerance="10"
   borderopacity="1"
   bordercolor="#666666"
   pagecolor="#ffffff" />
<style
   id="style976"
   type="text/css">
	.st0{fill:#FFDE00;}
</style>
<path
   style="fill:#07294d;fill-opacity:1"
   id="path978"
   d="m 190.6,102.40903 c 0.6,-2 0.6,-3.9 0.5,-6.1 3.4,0.7 3.2,5.8 -0.5,6.1 m -22,36 c 0,0 -0.7,3.6 -2.8,2.6 -2.1,-1 -2.6,-4.3 -2.6,-4.3 0,0 2.5,1.1 5.4,1.7 m 15.8,5.9 c -2.4,3.9 -9,-0.4 -9,-0.4 1.9,-1.5 3.1,-4 3.5,-7.2 3.4,0.2 8.1,3.4 5.5,7.6 m -26.9,-110.7 c -2.7,-1.1 -2,-9.5 -2,-9.5 0.7,3.8 5.2,6.5 9.1,4.2 0,0 -4,6.6 -7.1,5.3 m -6.2,65.5 c -2,0.4 -4.6,-0.5 -6.1,-1.6 -4.9,-3.8 -6.9,-13.8 -7.3,-21.6 2.1,4.4 5.4,11.5 11.5,9.6 2.1,-0.6 4.5,-3.4 4.5,-3.4 1.9,5.2 3.5,15.9 -2.6,17 m 33.1,-80.7 c 2,0.1 4,1.3 3.9,2.9 0,2.5 -2.4,3.1 -4.2,2.9 -2.5,-0.2 -3.6,-1.6 -3.6,-3.1 0.1,-1.7 1.9,-2.8 3.9,-2.7 M 157.9,8.2090299 c 2.9,-7 10.5,-8.20000002 10.5,-8.20000002 -5.9,-0.2 -24.5,2.80000002 -26.2,21.30000012 -0.6,6.1 1.7,11.2 4.2,15.5 -3.2,-2.4 -6.9,-6.5 -7.5,-11.9 -0.5,-4.5 1.9,-11.3 1.9,-11.3 -4.5,5.3 -9.3,11.9 -8.2,20.9 1,8.4 6.5,14 10.3,18.7 -2.8,-1.3 -4.5,-2.7 -7,-5.4 0.8,10 4,17.8 11,21.6 -9,-0.9 -10.8,-7.2 -13.4,-14.3 -1.8,-5 -4.8,-7.7 -7.5,-10.8 4.2,0.9 6.6,3.5 8.7,6.6 -1.3,-8.7 -7.6,-12.4 -16.4,-13.6 3.7,-3.4 9.9,-0.1 12.8,1.6 0,0 -1.8,-3.6 -3.4,-5.3 -4.3,-4.6 -13.8,-3.5 -19.5,-1.6 2,-3.6 7.6,-6.3 12.4,-4.9 -3,-2.6 -6.6,-4.4 -11.2,-4.7 -7.9,-0.5 -14.6,3.8 -18.5,6.8 1,-5.1 5.1,-7.1 8.9,-9.4 -13.3,-2.2 -20,6.1 -24.4,14.3 -0.4,-5.1 4,-10.8 4,-10.8 -16.3,6.7 -13.9,25 -13.9,25 -3,-1.8 -2.9,-8.6 -1.9,-11.7 0,0 -3.3,4.7 -3.4,11.3 -0.1,6.8 4.6,14 4.6,14 -4.9,-0.7 -7.9,-10.4 -7.9,-10.4 -2.7,13.7 9,24.8 9,24.8 -5.3,-0.6 -9.8,-7.1 -9.8,-7.1 1.9,13.5 13.8,20.8 13.8,20.8 -3.7,0.8 -9.2,-3 -9.2,-3 4.6,10.4 11.4,15.4 11.4,15.4 -4.2,0.2 -8.6,-4.8 -8.6,-4.8 -0.4,4.8 2.3,11.2 2.3,11.2 -4.3,-1.5 -5.5,-7.6 -5.5,-7.6 -3.5,4.9 -2.8,12.1 -2.8,12.1 -4.1,-2.7 -3.8,-8.5 -3.8,-8.5 -4,2 -6.4,10 -6.4,10 -2,-4.3 0.1,-9.4 0.1,-9.4 -5.6,1.4 -9.1,8 -9.1,8 -0.4,-4 2.2,-8.8 2.2,-8.8 -4.4,0.1 -8.2,6.4 -8.2,6.4 -0.8,-4.1 3.1,-8.7 3.1,-8.7 -4.8,-0.5 -9,4.7 -9,4.7 -0.6,-4.8 4.1,-8.3 4.1,-8.3 -5.2,-1.2 -9,3.3 -9,3.3 -0.7,-5 4.8,-8.5 4.8,-8.5 -4.1,-1.8 -8.6,1.9 -8.6,1.9 -0.5,-5.1 5.2,-8 5.2,-8 -3.5,-2.4 -8,0 -8,0 0.7,-4.2 6,-5.3 6,-5.3 -3,-3.4 -7.4,-3.1 -7.4,-3.1 1.5,-3.7 6.3,-3 6.3,-3 -2.3,-3.3 -6.6,-4.5 -6.6,-4.5 2.7,-2.3 6.4,-0.7 6.4,-0.7 -1.1,-3.7 -5.4,-5.8 -5.4,-5.8 3.4,-1.1 6.7,1.1 6.7,1.1 -0.4,-3.3 -4,-6.4 -4,-6.4 4,0.2 6.7,3.1 6.7,3.1 0,-2.9 -2,-6.4 -2,-6.4 3.2,1 6,4.2 6,4.2 0.3,-2.7 -0.4,-4.3 -0.4,-4.3 5.3,2 8.7,6 11.5,10.5 -1.4,-8.3 -6.7,-14.3 -15,-15 -14.5,-1.2 -23.7,15.2 -23.7,27.2 0,14 4.8,23.4 11.1,32.5 7.3,10.6 19.9,18.7 31.6,21.1 -3.8,1.2 -7.3,4.2 -7.3,7.7 6.1,0.4 11.1,3.2 13.7,6.5 h 21.5 c 5.2,0 10,-0.1 11.6,-0.5 4,-0.8 5.8,-9.8 10.5,-9.6 4.7,0.2 3.3,7.8 -0.7,8 -1.3,0.1 -1.9,-0.6 -3,-0.9 4.2,10.2 16.9,-1.3 11,-8.4 6.9,0.3 6.4,9.2 1.6,10.1 7.5,0.7 9.7,-6.7 6.2,-12.1 -3.4,-5.4 -10.3,-4.4 -15.8,-1.8 -5.5,2.6 -10.4,4.6 -14.1,5.1 -2.9,0.4 -5.8,0.2 -7.7,-0.9 -5.6,-3.3 4.4,-8.8 6.8,-10.3 8.9,-5.4 18.3,-11.8 19.2,-24.6 0.7,-9.5 -2.9,-14.5 -5.9,-20.4 -2.4,-4.8 -5,-9.7 -5.4,-15.9 -0.5,-8.5 5.7,-14.9 13.4,-14.5 10.7,0.5 16.2,9 16.9,19.7 0.3,4.2 -0.7,9.3 -0.9,13.6 -1.2,17.8 7.3,26.9 16.9,35.2 8.7,7.6 17.3,12.5 28.1,17.1 0.7,6.8 4.9,14.4 13.1,10.8 4.2,7.3 20,5.9 17.8,-4.7 -1,-5 -8.4,-5.7 -7.8,-11.3 0.2,-2.7 3.4,-4.2 6.2,-3.2 3,1 4.4,5.6 4.2,8.9 4.7,-7.9 -0.1,-19.4 -9.8,-17.1 -5,1.2 -9.8,9.8 -9.8,9.8 -6.3,-3.4 -12.3,-6.8 -12.3,-6.8 14.4,-0.7 23.6,-7.1 28.9,-16.9 7,1.6 11.7,-3.2 9.8,-8.9 0,0 6.1,1.9 6.8,6.9 0.7,5 -6,6.1 -9.7,3.7 0,0 3.2,7.6 9.3,6.1 6.1,-1.5 5.5,-8 4.1,-10.6 -1.3,-2.6 -6.9,-7.5 -5.4,-10.8 1.4,-3.3 8.1,-1.1 7.1,7.5 4.9,-6.8 0.6,-17.6 -7.3,-17.6 -5.8,0 -8.1,5 -9.6,10.1 0,0 -1.9,-0.7 -4,-0.2 -1.2,-8.2 -6.4,-13.6 -14.8,-16.9 -7.5,-2.9 -14.8,-8 -15.5,-16.2 -0.3,-3.9 0.9,-7 3.7,-8.4 7.5,-3.8 12.5,4.4 13.8,9.8 -0.1,-6.4 2.3,-9.4 5.2,-12.7 -2.3,-3.8 -6.7,-7.1 -12.7,-6.3 -4.1,0.5 -8.1,2.7 -8.1,2.7 1.9,-4.4 5.3,-12.2 12.8,-12.6 6.1,-0.3 9,5.1 10.8,10.3 1,-9.9 6.3,-16.8 11.2,-22 -5.8,3.4 -8.7,-3.8 -14.3,-3.8 -7.9,0 -11.8,8.8 -18.5,9.6 -2.8,0.3 -4.9,-1.7 -6.1,-2.6 -1.8,-1.7 -3.5,-7.1 -0.5,-14.1000001"
   class="st0" />
















</svg>
