<?xml version="1.0" encoding="UTF-8" standalone="no"?>
<svg
   xmlns:dc="http://purl.org/dc/elements/1.1/"
   xmlns:cc="http://creativecommons.org/ns#"
   xmlns:rdf="http://www.w3.org/1999/02/22-rdf-syntax-ns#"
   xmlns:svg="http://www.w3.org/2000/svg"
   xmlns="http://www.w3.org/2000/svg"
   xmlns:sodipodi="http://sodipodi.sourceforge.net/DTD/sodipodi-0.dtd"
   xmlns:inkscape="http://www.inkscape.org/namespaces/inkscape"
   sodipodi:docname="reuters.svg"
   inkscape:version="1.0 (4035a4f, 2020-05-01)"
   id="svg8"
   version="1.1"
   viewBox="0 0 63.251965 59.866531"
   height="36"
   width="36">
  <defs
     id="defs2">
    <clipPath
       id="clipPath2458">
      <path
         d="M 392.314,16.466 H 571.767 V 85.811 H 392.314 Z"
         id="path2460" />
    </clipPath>
    <linearGradient
       x1="0"
       y1="0"
       x2="1"
       y2="0"
       id="linearGradient2480"
       gradientUnits="userSpaceOnUse"
       gradientTransform="matrix(-10.472366,-5.6944885,-5.6531982,10.548828,427.01743,51.292908)"
       spreadMethod="pad">
      <stop
         id="stop2482"
         style="stop-color:#f79210;stop-opacity:1"
         offset="0" />
      <stop
         id="stop2484"
         style="stop-color:#f35c19;stop-opacity:1"
         offset="0.5" />
      <stop
         id="stop2486"
         style="stop-color:#f79210;stop-opacity:1"
         offset="1" />
    </linearGradient>
    <linearGradient
       x1="0"
       y1="0"
       x2="1"
       y2="0"
       id="linearGradient2502"
       gradientUnits="userSpaceOnUse"
       gradientTransform="matrix(-15.375839,4.5487671,4.5157928,15.488113,429.46941,46.169586)"
       spreadMethod="pad">
      <stop
         id="stop2504"
         style="stop-color:#f79210;stop-opacity:1"
         offset="0" />
      <stop
         id="stop2506"
         style="stop-color:#f35c19;stop-opacity:1"
         offset="0.5" />
      <stop
         id="stop2508"
         style="stop-color:#f79210;stop-opacity:1"
         offset="1" />
    </linearGradient>
    <linearGradient
       x1="0"
       y1="0"
       x2="1"
       y2="0"
       id="linearGradient2524"
       gradientUnits="userSpaceOnUse"
       gradientTransform="matrix(-15.073257,15.183334,15.073257,15.183334,429.31879,40.854889)"
       spreadMethod="pad">
      <stop
         id="stop2526"
         style="stop-color:#f79210;stop-opacity:1"
         offset="0" />
      <stop
         id="stop2528"
         style="stop-color:#f35c19;stop-opacity:1"
         offset="0.5" />
      <stop
         id="stop2530"
         style="stop-color:#f79210;stop-opacity:1"
         offset="1" />
    </linearGradient>
    <linearGradient
       x1="0"
       y1="0"
       x2="1"
       y2="0"
       id="linearGradient2546"
       gradientUnits="userSpaceOnUse"
       gradientTransform="matrix(-11.135727,26.004806,25.816284,11.217026,427.34856,35.439804)"
       spreadMethod="pad">
      <stop
         id="stop2548"
         style="stop-color:#f79210;stop-opacity:1"
         offset="0" />
      <stop
         id="stop2550"
         style="stop-color:#f35c19;stop-opacity:1"
         offset="0.5" />
      <stop
         id="stop2552"
         style="stop-color:#f79210;stop-opacity:1"
         offset="1" />
    </linearGradient>
    <linearGradient
       x1="0"
       y1="0"
       x2="1"
       y2="0"
       id="linearGradient2568"
       gradientUnits="userSpaceOnUse"
       gradientTransform="matrix(0,36.271317,36.008377,0,421.77983,30.308243)"
       spreadMethod="pad">
      <stop
         id="stop2570"
         style="stop-color:#f79210;stop-opacity:1"
         offset="0" />
      <stop
         id="stop2572"
         style="stop-color:#f35c19;stop-opacity:1"
         offset="0.5" />
      <stop
         id="stop2574"
         style="stop-color:#f79210;stop-opacity:1"
         offset="1" />
    </linearGradient>
  </defs>
  <sodipodi:namedview
     fit-margin-bottom="0"
     fit-margin-right="0"
     fit-margin-left="0"
     fit-margin-top="0"
     inkscape:window-maximized="0"
     inkscape:window-y="23"
     inkscape:window-x="0"
     inkscape:window-height="943"
     inkscape:window-width="1252"
     showgrid="false"
     inkscape:document-rotation="0"
     inkscape:current-layer="layer1"
     inkscape:document-units="px"
     inkscape:cy="530.27648"
     inkscape:cx="-41.93084"
     inkscape:zoom="0.35"
     inkscape:pageshadow="2"
     inkscape:pageopacity="0.0"
     borderopacity="1.0"
     bordercolor="#666666"
     pagecolor="#ffffff"
     id="base" />
  <metadata
     id="metadata5">
    <rdf:RDF>
      <cc:Work
         rdf:about="">
        <dc:format>image/svg+xml</dc:format>
        <dc:type
           rdf:resource="http://purl.org/dc/dcmitype/StillImage" />
        <dc:title></dc:title>
      </cc:Work>
    </rdf:RDF>
  </metadata>
  <g
     transform="translate(-7.6924157,-7.8643486)"
     id="layer1"
     inkscape:groupmode="layer"
     inkscape:label="Layer 1">
    <g
       transform="matrix(1.3205003,0,0,1.3205003,7.6924157,7.8643486)"
       id="g303">
      <g
         transform="matrix(1.25,0,0,-1.25,-503.275,83.22375)"
         id="g2468">
        <g
           id="g2470">
          <g
             id="g2476">
            <g
               id="g2478">
              <path
                 d="m 420.463,54.569 c -0.322,-0.175 -0.437,-0.583 -0.267,-0.904 v 0 c 0.171,-0.329 0.578,-0.446 0.9,-0.274 v 0 c 0.322,0.178 0.44,0.582 0.268,0.909 v 0 c -0.118,0.222 -0.348,0.35 -0.585,0.35 v 0 c -0.107,0 -0.216,-0.026 -0.316,-0.081 m 1.783,-0.028 c -0.288,-0.154 -0.39,-0.513 -0.239,-0.803 v 0 c 0.152,-0.288 0.509,-0.396 0.794,-0.238 v 0 c 0.292,0.157 0.394,0.515 0.242,0.804 v 0 c -0.103,0.197 -0.305,0.312 -0.515,0.312 v 0 c -0.095,0 -0.192,-0.025 -0.282,-0.075 m -3.475,-0.478 c -0.364,-0.199 -0.502,-0.659 -0.302,-1.024 v 0 c 0.198,-0.367 0.652,-0.51 1.021,-0.31 v 0 c 0.365,0.199 0.498,0.659 0.302,1.024 v 0 c -0.135,0.256 -0.395,0.402 -0.664,0.402 v 0 c -0.12,0 -0.243,-0.03 -0.357,-0.092 m 5.186,-0.084 c -0.252,-0.141 -0.349,-0.46 -0.214,-0.71 v 0 c 0.135,-0.252 0.455,-0.345 0.698,-0.207 v 0 c 0.256,0.137 0.348,0.452 0.21,0.703 v 0 c -0.091,0.176 -0.271,0.275 -0.456,0.275 v 0 c -0.081,0 -0.163,-0.02 -0.238,-0.061 m -6.528,-1.06 c -0.327,-0.18 -0.447,-0.579 -0.271,-0.91 v 0 c 0.176,-0.322 0.572,-0.443 0.895,-0.268 v 0 c 0.328,0.175 0.447,0.583 0.273,0.904 v 0 C 418.207,52.87 417.976,53 417.74,53 v 0 c -0.106,0 -0.213,-0.026 -0.311,-0.081 m 8,-0.008 c -0.219,-0.121 -0.298,-0.39 -0.184,-0.605 v 0 c 0.116,-0.215 0.383,-0.294 0.604,-0.183 v 0 c 0.213,0.122 0.297,0.391 0.18,0.608 v 0 c -0.082,0.149 -0.235,0.235 -0.391,0.235 v 0 c -0.071,0 -0.142,-0.018 -0.209,-0.055 m 1.088,-1.46 c -0.172,-0.101 -0.243,-0.332 -0.144,-0.508 v 0 c 0.096,-0.181 0.321,-0.246 0.495,-0.15 v 0 c 0.181,0.097 0.248,0.319 0.15,0.5 v 0 c -0.068,0.128 -0.196,0.199 -0.33,0.199 v 0 c -0.057,0 -0.116,-0.013 -0.171,-0.041 m -10.046,-0.047 c -0.286,-0.157 -0.392,-0.519 -0.242,-0.806 v 0 c 0.158,-0.286 0.515,-0.397 0.8,-0.239 v 0 c 0.287,0.153 0.397,0.515 0.242,0.805 v 0 c -0.109,0.197 -0.313,0.31 -0.522,0.31 v 0 c -0.094,0 -0.189,-0.023 -0.278,-0.07 m 10.6,-1.551 c -0.219,-0.115 -0.301,-0.39 -0.182,-0.606 v 0 c 0.112,-0.216 0.386,-0.296 0.593,-0.185 v 0 c 0.218,0.127 0.301,0.398 0.187,0.612 v 0 c -0.081,0.149 -0.234,0.233 -0.39,0.233 v 0 c -0.071,0 -0.143,-0.018 -0.208,-0.054 m -11.068,-0.204 c -0.248,-0.134 -0.34,-0.45 -0.207,-0.7 v 0 c 0.138,-0.255 0.449,-0.348 0.701,-0.212 v 0 c 0.249,0.137 0.344,0.457 0.209,0.705 v 0 c -0.093,0.174 -0.269,0.273 -0.452,0.273 v 0 c -0.085,0 -0.171,-0.022 -0.251,-0.066 m 11.07,-1.49 c -0.252,-0.14 -0.341,-0.452 -0.211,-0.709 v 0 c 0.133,-0.248 0.455,-0.339 0.703,-0.206 v 0 c 0.251,0.137 0.341,0.453 0.205,0.704 v 0 c -0.092,0.175 -0.267,0.273 -0.451,0.273 v 0 c -0.083,0 -0.166,-0.021 -0.246,-0.062 m -10.996,-0.33 c -0.212,-0.119 -0.292,-0.392 -0.176,-0.607 v 0 c 0.118,-0.219 0.387,-0.295 0.598,-0.175 v 0 c 0.215,0.11 0.302,0.387 0.18,0.602 v 0 c -0.083,0.147 -0.234,0.233 -0.392,0.233 v 0 c -0.07,0 -0.142,-0.017 -0.21,-0.053 m 10.461,-1.289 c -0.289,-0.153 -0.393,-0.521 -0.241,-0.809 v 0 c 0.157,-0.286 0.514,-0.394 0.795,-0.24 v 0 c 0.294,0.16 0.395,0.517 0.246,0.808 v 0 c -0.108,0.198 -0.311,0.312 -0.521,0.312 v 0 c -0.094,0 -0.19,-0.022 -0.279,-0.071 m -9.843,-0.437 c -0.18,-0.095 -0.245,-0.321 -0.148,-0.507 v 0 c 0.096,-0.177 0.318,-0.246 0.501,-0.151 v 0 c 0.178,0.102 0.245,0.327 0.147,0.507 v 0 c -0.067,0.124 -0.196,0.195 -0.328,0.195 v 0 c -0.058,0 -0.117,-0.014 -0.172,-0.044 m 8.816,-0.948 c -0.324,-0.177 -0.442,-0.583 -0.268,-0.906 v 0 c 0.17,-0.325 0.574,-0.446 0.899,-0.267 v 0 c 0.322,0.168 0.441,0.581 0.266,0.903 v 0 c -0.122,0.222 -0.35,0.352 -0.585,0.352 v 0 c -0.105,0 -0.212,-0.026 -0.312,-0.082 m -7.79,-0.385 c -0.216,-0.114 -0.296,-0.388 -0.18,-0.603 v 0 c 0.113,-0.217 0.382,-0.297 0.597,-0.177 v 0 c 0.214,0.112 0.295,0.383 0.18,0.6 v 0 c -0.078,0.148 -0.231,0.231 -0.389,0.231 v 0 c -0.071,0 -0.142,-0.016 -0.208,-0.051 m 6.355,-0.606 c -0.365,-0.196 -0.505,-0.655 -0.302,-1.024 v 0 c 0.198,-0.367 0.654,-0.502 1.021,-0.308 v 0 c 0.363,0.202 0.498,0.664 0.303,1.023 v 0 c -0.136,0.256 -0.395,0.403 -0.663,0.403 v 0 c -0.121,0 -0.244,-0.03 -0.359,-0.094 m -4.951,-0.329 c -0.256,-0.139 -0.347,-0.45 -0.209,-0.702 v 0 c 0.13,-0.254 0.445,-0.351 0.695,-0.215 v 0 c 0.252,0.143 0.346,0.46 0.211,0.71 v 0 c -0.095,0.171 -0.274,0.27 -0.455,0.27 v 0 c -0.082,0 -0.166,-0.019 -0.242,-0.063 m 3.345,-0.332 c -0.324,-0.173 -0.437,-0.577 -0.26,-0.906 v 0 c 0.168,-0.322 0.569,-0.45 0.893,-0.267 v 0 c 0.325,0.171 0.441,0.578 0.269,0.902 v 0 c -0.122,0.224 -0.35,0.351 -0.586,0.351 v 0 c -0.107,0 -0.215,-0.026 -0.316,-0.08 m -1.712,-0.104 c -0.287,-0.156 -0.389,-0.519 -0.237,-0.805 v 0 c 0.157,-0.29 0.514,-0.398 0.801,-0.243 v 0 c 0.29,0.152 0.395,0.516 0.24,0.808 v 0 c -0.105,0.198 -0.31,0.308 -0.522,0.308 v 0 c -0.096,0 -0.192,-0.021 -0.282,-0.068"
                 id="path2488"
                 style="fill:url(#linearGradient2480);stroke:none" />
            </g>
          </g>
        </g>
      </g>
      <g
         transform="matrix(1.25,0,0,-1.25,-503.275,83.22375)"
         id="g2490">
        <g
           id="g2492">
          <g
             id="g2498">
            <g
               id="g2500">
              <path
                 d="m 420.756,56.394 c -0.133,-0.45 0.122,-0.919 0.569,-1.054 v 0 c 0.447,-0.133 0.914,0.128 1.046,0.573 v 0 c 0.134,0.45 -0.122,0.925 -0.567,1.055 v 0 c -0.081,0.025 -0.162,0.036 -0.242,0.036 v 0 c -0.366,0 -0.697,-0.241 -0.806,-0.61 m 2.257,-0.274 c -0.149,-0.52 0.135,-1.058 0.656,-1.212 v 0 c 0.513,-0.153 1.05,0.141 1.199,0.655 v 0 c 0.156,0.522 -0.138,1.066 -0.654,1.219 v 0 c -0.091,0.026 -0.182,0.039 -0.272,0.039 v 0 c -0.42,0 -0.807,-0.277 -0.929,-0.701 m -4.523,-0.198 c -0.116,-0.401 0.113,-0.819 0.51,-0.937 v 0 c 0.396,-0.118 0.815,0.108 0.93,0.511 v 0 c 0.113,0.398 -0.115,0.818 -0.508,0.936 v 0 c -0.07,0.02 -0.14,0.03 -0.209,0.03 v 0 c -0.326,0 -0.625,-0.214 -0.723,-0.54 m 6.808,-0.874 c -0.133,-0.449 0.125,-0.92 0.571,-1.053 v 0 c 0.447,-0.133 0.915,0.129 1.046,0.577 v 0 c 0.133,0.449 -0.122,0.921 -0.569,1.054 v 0 c -0.079,0.024 -0.158,0.035 -0.237,0.035 v 0 c -0.366,0 -0.701,-0.244 -0.811,-0.613 m -8.756,-0.33 c -0.092,-0.317 0.084,-0.644 0.399,-0.738 v 0 c 0.312,-0.092 0.64,0.09 0.733,0.403 v 0 c 0.091,0.314 -0.089,0.644 -0.402,0.738 v 0 c -0.055,0.017 -0.111,0.025 -0.166,0.025 v 0 c -0.256,0 -0.49,-0.169 -0.564,-0.428 m 10.586,-1.351 c -0.119,-0.405 0.111,-0.82 0.506,-0.938 v 0 c 0.399,-0.117 0.812,0.115 0.931,0.514 v 0 c 0.119,0.396 -0.108,0.816 -0.508,0.932 v 0 c -0.07,0.021 -0.141,0.031 -0.211,0.031 v 0 c -0.321,0 -0.619,-0.213 -0.718,-0.539 m -12.127,-0.433 c -0.076,-0.252 0.072,-0.521 0.324,-0.594 v 0 c 0.253,-0.075 0.515,0.07 0.592,0.324 v 0 c 0.078,0.252 -0.071,0.52 -0.322,0.598 v 0 c -0.043,0.012 -0.087,0.018 -0.131,0.018 v 0 c -0.209,0 -0.401,-0.134 -0.463,-0.346 m 13.428,-1.73 c -0.097,-0.321 0.089,-0.649 0.399,-0.741 v 0 c 0.315,-0.093 0.641,0.087 0.733,0.403 v 0 c 0.092,0.316 -0.086,0.645 -0.398,0.736 v 0 c -0.056,0.017 -0.113,0.025 -0.169,0.025 v 0 c -0.256,0 -0.492,-0.168 -0.565,-0.423 m -14.335,-0.485 c -0.055,-0.192 0.049,-0.394 0.239,-0.449 v 0 c 0.191,-0.056 0.388,0.055 0.444,0.245 v 0 c 0.055,0.19 -0.052,0.389 -0.243,0.447 v 0 c -0.034,0.009 -0.067,0.014 -0.1,0.014 v 0 c -0.154,0 -0.295,-0.101 -0.34,-0.257 m 14.887,-1.921 c -0.076,-0.253 0.068,-0.524 0.324,-0.597 v 0 c 0.254,-0.076 0.518,0.071 0.593,0.327 v 0 c 0.073,0.251 -0.069,0.52 -0.324,0.597 v 0 c -0.044,0.012 -0.089,0.019 -0.132,0.019 v 0 c -0.209,0 -0.403,-0.136 -0.461,-0.346 M 413.666,48.36 c -0.076,-0.253 0.073,-0.519 0.325,-0.595 v 0 c 0.252,-0.076 0.517,0.067 0.592,0.324 v 0 c 0.076,0.254 -0.068,0.521 -0.322,0.598 v 0 c -0.044,0.014 -0.088,0.019 -0.132,0.019 v 0 c -0.207,0 -0.398,-0.138 -0.463,-0.346 m 15.121,-1.991 c -0.052,-0.189 0.053,-0.392 0.24,-0.445 v 0 c 0.192,-0.056 0.388,0.052 0.442,0.244 v 0 c 0.058,0.189 -0.05,0.391 -0.24,0.447 v 0 c -0.032,0.009 -0.065,0.013 -0.097,0.013 v 0 c -0.153,0 -0.299,-0.102 -0.345,-0.259 m -14.78,-0.351 c -0.088,-0.314 0.081,-0.646 0.399,-0.738 v 0 c 0.309,-0.095 0.639,0.089 0.731,0.406 v 0 c 0.091,0.314 -0.089,0.644 -0.399,0.731 v 0 c -0.058,0.018 -0.116,0.026 -0.174,0.026 v 0 c -0.254,0 -0.486,-0.167 -0.557,-0.425 m 13.641,-1.794 c -0.074,-0.256 0.071,-0.524 0.32,-0.596 v 0 c 0.257,-0.076 0.523,0.071 0.597,0.324 v 0 c 0.073,0.252 -0.071,0.523 -0.324,0.599 v 0 c -0.044,0.013 -0.089,0.019 -0.134,0.019 v 0 c -0.207,0 -0.398,-0.136 -0.459,-0.346 m -12.649,-0.279 c -0.118,-0.399 0.107,-0.817 0.506,-0.937 v 0 c 0.401,-0.119 0.813,0.111 0.933,0.511 v 0 c 0.117,0.399 -0.114,0.821 -0.511,0.94 v 0 c -0.07,0.021 -0.141,0.031 -0.211,0.031 v 0 c -0.323,0 -0.619,-0.215 -0.717,-0.545 m 10.892,-1.442 c -0.09,-0.313 0.092,-0.644 0.402,-0.738 v 0 c 0.311,-0.093 0.638,0.089 0.729,0.4 v 0 c 0.095,0.318 -0.084,0.648 -0.396,0.74 v 0 c -0.057,0.017 -0.113,0.025 -0.168,0.025 v 0 c -0.256,0 -0.491,-0.17 -0.567,-0.427 m -9.24,-0.192 c -0.13,-0.445 0.121,-0.917 0.57,-1.051 v 0 c 0.448,-0.13 0.914,0.128 1.048,0.576 v 0 c 0.128,0.446 -0.126,0.922 -0.575,1.053 v 0 c -0.08,0.024 -0.16,0.035 -0.238,0.035 v 0 c -0.365,0 -0.698,-0.24 -0.805,-0.613 m 2.044,-0.992 c -0.148,-0.523 0.14,-1.06 0.657,-1.214 v 0 c 0.513,-0.149 1.055,0.148 1.201,0.661 v 0 c 0.151,0.518 -0.14,1.061 -0.657,1.214 v 0 c -0.091,0.027 -0.183,0.039 -0.273,0.039 v 0 c -0.42,0 -0.806,-0.274 -0.928,-0.7 m 4.939,0.072 c -0.116,-0.401 0.115,-0.821 0.509,-0.937 v 0 c 0.4,-0.118 0.814,0.11 0.931,0.512 v 0 c 0.117,0.396 -0.108,0.817 -0.507,0.934 v 0 c -0.071,0.022 -0.143,0.032 -0.214,0.032 v 0 c -0.324,0 -0.624,-0.214 -0.719,-0.541 m -2.443,-0.423 c -0.13,-0.446 0.127,-0.914 0.573,-1.049 v 0 c 0.448,-0.135 0.917,0.124 1.044,0.571 v 0 c 0.13,0.451 -0.121,0.923 -0.568,1.055 v 0 c -0.081,0.023 -0.161,0.035 -0.24,0.035 v 0 c -0.365,0 -0.7,-0.24 -0.809,-0.612"
                 id="path2510"
                 style="fill:url(#linearGradient2502);stroke:none" />
            </g>
          </g>
        </g>
      </g>
      <g
         transform="matrix(1.25,0,0,-1.25,-503.275,83.22375)"
         id="g2512">
        <g
           id="g2514">
          <g
             id="g2520">
            <g
               id="g2522">
              <path
                 d="m 422.375,59.307 c -0.362,-0.388 -0.345,-1.001 0.043,-1.368 v 0 c 0.386,-0.367 0.995,-0.349 1.356,0.04 v 0 c 0.364,0.391 0.344,1.001 -0.041,1.369 v 0 c -0.185,0.175 -0.421,0.262 -0.656,0.262 v 0 c -0.256,0 -0.512,-0.102 -0.702,-0.303 m -3.042,-0.237 c -0.286,-0.308 -0.272,-0.789 0.034,-1.079 v 0 c 0.301,-0.287 0.781,-0.271 1.069,0.034 v 0 c 0.283,0.305 0.27,0.79 -0.033,1.077 v 0 c -0.147,0.139 -0.333,0.206 -0.519,0.206 v 0 c -0.201,0 -0.402,-0.08 -0.551,-0.238 m 6.023,-0.579 c -0.409,-0.437 -0.391,-1.124 0.043,-1.539 v 0 c 0.434,-0.413 1.123,-0.391 1.529,0.044 v 0 c 0.408,0.438 0.39,1.129 -0.044,1.539 v 0 c -0.211,0.2 -0.478,0.299 -0.743,0.299 v 0 c -0.287,0 -0.572,-0.116 -0.785,-0.343 m -8.926,-0.604 c -0.231,-0.248 -0.22,-0.635 0.025,-0.872 v 0 c 0.249,-0.232 0.635,-0.221 0.867,0.027 v 0 c 0.232,0.247 0.219,0.637 -0.025,0.87 v 0 c -0.12,0.113 -0.271,0.169 -0.422,0.169 v 0 c -0.162,0 -0.324,-0.066 -0.445,-0.194 m 11.448,-1.1 c -0.473,-0.501 -0.454,-1.291 0.049,-1.767 v 0 c 0.499,-0.477 1.287,-0.451 1.755,0.047 v 0 c 0.473,0.51 0.45,1.301 -0.049,1.776 v 0 c -0.24,0.228 -0.546,0.339 -0.85,0.339 v 0 c -0.332,0 -0.661,-0.132 -0.905,-0.395 M 414.019,55.81 c -0.175,-0.186 -0.166,-0.475 0.018,-0.65 v 0 c 0.186,-0.177 0.474,-0.166 0.644,0.018 v 0 c 0.174,0.185 0.166,0.476 -0.017,0.651 v 0 c -0.09,0.083 -0.203,0.124 -0.316,0.124 v 0 c -0.12,0 -0.24,-0.048 -0.329,-0.143 m 15.93,-1.679 c -0.41,-0.436 -0.391,-1.126 0.046,-1.539 v 0 c 0.435,-0.414 1.119,-0.388 1.526,0.047 v 0 c 0.411,0.438 0.392,1.123 -0.047,1.54 v 0 c -0.206,0.197 -0.47,0.295 -0.736,0.295 v 0 c -0.288,0 -0.576,-0.115 -0.789,-0.343 m -17.844,-0.869 c -0.234,-0.248 -0.221,-0.636 0.028,-0.872 v 0 c 0.243,-0.232 0.63,-0.222 0.864,0.023 v 0 c 0.229,0.249 0.22,0.638 -0.027,0.872 v 0 c -0.118,0.113 -0.269,0.169 -0.419,0.169 v 0 c -0.163,0 -0.325,-0.065 -0.446,-0.192 m 19.007,-2.242 c -0.366,-0.389 -0.347,-1.002 0.041,-1.367 v 0 c 0.385,-0.37 0.995,-0.347 1.357,0.041 v 0 c 0.367,0.387 0.347,1 -0.04,1.368 v 0 c -0.186,0.175 -0.424,0.262 -0.66,0.262 v 0 c -0.255,0 -0.51,-0.101 -0.698,-0.304 m -20.005,-0.75 c -0.281,-0.309 -0.274,-0.786 0.033,-1.075 v 0 c 0.301,-0.29 0.783,-0.274 1.069,0.029 v 0 c 0.287,0.305 0.27,0.792 -0.031,1.079 v 0 c -0.147,0.139 -0.334,0.208 -0.521,0.208 v 0 c -0.201,0 -0.402,-0.081 -0.55,-0.241 m 20.246,-2.607 c -0.285,-0.306 -0.268,-0.788 0.034,-1.075 v 0 c 0.308,-0.291 0.782,-0.275 1.07,0.032 v 0 c 0.285,0.305 0.275,0.786 -0.034,1.076 v 0 c -0.145,0.138 -0.331,0.206 -0.518,0.206 v 0 c -0.201,0 -0.403,-0.08 -0.552,-0.239 m -20.301,-0.465 c -0.362,-0.387 -0.344,-1.003 0.042,-1.369 v 0 c 0.388,-0.368 0.994,-0.349 1.358,0.04 v 0 c 0.364,0.387 0.346,1.001 -0.041,1.371 v 0 c -0.185,0.177 -0.42,0.263 -0.656,0.263 v 0 c -0.256,0 -0.513,-0.103 -0.703,-0.305 m 19.515,-2.723 c -0.232,-0.247 -0.221,-0.639 0.025,-0.875 v 0 c 0.25,-0.233 0.637,-0.22 0.869,0.03 v 0 c 0.23,0.247 0.221,0.638 -0.026,0.873 v 0 c -0.119,0.112 -0.27,0.167 -0.421,0.167 v 0 c -0.162,0 -0.326,-0.066 -0.447,-0.195 m -18.523,-0.226 c -0.409,-0.434 -0.396,-1.124 0.041,-1.539 v 0 c 0.437,-0.41 1.123,-0.388 1.529,0.047 v 0 c 0.408,0.436 0.389,1.129 -0.044,1.538 v 0 c -0.209,0.2 -0.474,0.297 -0.737,0.297 v 0 c -0.288,0 -0.576,-0.117 -0.789,-0.343 m 1.835,-2.429 c -0.469,-0.509 -0.447,-1.293 0.054,-1.772 v 0 c 0.499,-0.474 1.286,-0.452 1.755,0.053 v 0 c 0.472,0.504 0.448,1.294 -0.052,1.771 v 0 c -0.241,0.228 -0.548,0.341 -0.853,0.342 v 0 c -0.33,0 -0.66,-0.133 -0.904,-0.394 m 15.001,-0.11 c -0.172,-0.186 -0.163,-0.477 0.02,-0.651 v 0 c 0.185,-0.172 0.472,-0.166 0.644,0.023 v 0 c 0.174,0.183 0.167,0.475 -0.02,0.647 v 0 c -0.086,0.084 -0.199,0.126 -0.311,0.126 v 0 c -0.123,0 -0.244,-0.049 -0.333,-0.145 m -12.245,-1.821 c -0.407,-0.431 -0.388,-1.121 0.049,-1.535 v 0 c 0.434,-0.415 1.119,-0.392 1.525,0.044 v 0 c 0.408,0.441 0.393,1.127 -0.046,1.54 v 0 c -0.207,0.197 -0.474,0.295 -0.739,0.295 v 0 c -0.002,0 -0.003,0 -0.004,0 v 0 c -0.287,0 -0.573,-0.116 -0.785,-0.344 m 9.607,-0.041 c -0.233,-0.248 -0.222,-0.639 0.024,-0.872 v 0 c 0.249,-0.234 0.637,-0.222 0.867,0.026 v 0 c 0.232,0.246 0.221,0.636 -0.026,0.871 v 0 c -0.118,0.113 -0.269,0.169 -0.421,0.169 v 0 c -0.162,0 -0.324,-0.065 -0.444,-0.194 m -6.455,-0.937 c -0.364,-0.387 -0.346,-1.004 0.041,-1.366 v 0 c 0.391,-0.37 0.995,-0.352 1.358,0.038 v 0 c 0.365,0.387 0.35,1.002 -0.038,1.367 v 0 c -0.186,0.178 -0.422,0.264 -0.659,0.264 v 0 c -0.257,0 -0.513,-0.102 -0.702,-0.303 m 3.341,-0.048 c -0.285,-0.302 -0.27,-0.788 0.033,-1.076 v 0 c 0.305,-0.289 0.784,-0.271 1.07,0.035 v 0 c 0.286,0.302 0.275,0.786 -0.031,1.075 v 0 c -0.147,0.139 -0.333,0.207 -0.519,0.207 v 0 c -0.202,0 -0.403,-0.081 -0.553,-0.241"
                 id="path2532"
                 style="fill:url(#linearGradient2524);stroke:none" />
            </g>
          </g>
        </g>
      </g>
      <g
         transform="matrix(1.25,0,0,-1.25,-503.275,83.22375)"
         id="g2534">
        <g
           id="g2536">
          <g
             id="g2542">
            <g
               id="g2544">
              <path
                 d="m 423.181,62.726 c -0.451,-0.09 -0.743,-0.527 -0.653,-0.984 v 0 c 0.09,-0.452 0.529,-0.746 0.979,-0.655 v 0 c 0.45,0.091 0.741,0.531 0.651,0.983 v 0 c -0.08,0.401 -0.425,0.673 -0.812,0.673 v 0 c -0.054,0 -0.109,-0.006 -0.165,-0.017 m -3.444,-0.227 c -0.353,-0.053 -0.6,-0.383 -0.548,-0.742 v 0 c 0.053,-0.358 0.383,-0.603 0.737,-0.552 v 0 c 0.355,0.053 0.602,0.383 0.549,0.742 v 0 c -0.046,0.326 -0.324,0.559 -0.642,0.559 v 0 c -0.032,0 -0.063,-0.003 -0.096,-0.007 M 426.5,62.02 c -0.538,-0.138 -0.865,-0.688 -0.726,-1.233 v 0 c 0.137,-0.542 0.687,-0.872 1.225,-0.731 v 0 c 0.537,0.138 0.863,0.691 0.725,1.232 v 0 c -0.117,0.461 -0.526,0.764 -0.974,0.764 v 0 c -0.083,0 -0.166,-0.01 -0.25,-0.032 m -10.286,-0.574 c -0.306,-0.133 -0.449,-0.49 -0.316,-0.801 v 0 c 0.131,-0.308 0.489,-0.449 0.795,-0.317 v 0 c 0.306,0.134 0.449,0.492 0.317,0.8 v 0 c -0.099,0.231 -0.322,0.368 -0.555,0.368 v 0 c -0.081,0 -0.163,-0.016 -0.241,-0.05 m 13.227,-0.926 c -0.659,-0.207 -1.032,-0.915 -0.824,-1.583 v 0 c 0.206,-0.666 0.912,-1.038 1.571,-0.83 v 0 c 0.663,0.209 1.031,0.918 0.825,1.583 v 0 c -0.169,0.542 -0.663,0.888 -1.195,0.888 v 0 c -0.126,0 -0.252,-0.019 -0.377,-0.058 m -16.407,-0.933 c -0.28,-0.225 -0.329,-0.633 -0.107,-0.918 v 0 c 0.223,-0.284 0.632,-0.331 0.912,-0.108 v 0 c 0.282,0.225 0.331,0.635 0.108,0.92 v 0 c -0.128,0.163 -0.317,0.248 -0.508,0.248 v 0 c -0.141,0 -0.284,-0.047 -0.405,-0.142 m 18.824,-1.429 c -0.717,-0.267 -1.086,-1.065 -0.818,-1.79 v 0 c 0.265,-0.724 1.062,-1.092 1.776,-0.825 v 0 c 0.717,0.266 1.085,1.07 0.819,1.792 v 0 c -0.208,0.566 -0.736,0.91 -1.296,0.91 v 0 c -0.16,0 -0.323,-0.028 -0.481,-0.087 m -21.35,-0.937 c -0.375,-0.267 -0.466,-0.787 -0.198,-1.167 v 0 c 0.266,-0.376 0.784,-0.465 1.157,-0.198 v 0 c 0.375,0.268 0.464,0.79 0.198,1.166 v 0 c -0.162,0.231 -0.417,0.354 -0.676,0.354 v 0 c -0.167,0 -0.335,-0.05 -0.481,-0.155 m 23.031,-2.018 c -0.765,-0.333 -1.118,-1.219 -0.788,-1.992 v 0 c 0.33,-0.77 1.215,-1.125 1.979,-0.794 v 0 c 0.763,0.332 1.117,1.226 0.786,1.994 v 0 c -0.245,0.575 -0.799,0.916 -1.38,0.916 v 0 c -0.2,0 -0.403,-0.039 -0.597,-0.124 m -24.8,-0.897 c -0.468,-0.301 -0.611,-0.923 -0.311,-1.399 v 0 c 0.297,-0.473 0.919,-0.614 1.388,-0.315 v 0 c 0.472,0.298 0.61,0.927 0.312,1.401 v 0 c -0.192,0.305 -0.516,0.471 -0.849,0.471 v 0 c -0.185,0 -0.372,-0.052 -0.54,-0.158 m 25.742,-2.65 c -0.683,-0.341 -0.964,-1.178 -0.626,-1.865 v 0 c 0.342,-0.696 1.17,-0.973 1.855,-0.632 v 0 c 0.684,0.34 0.966,1.174 0.625,1.866 v 0 c -0.241,0.491 -0.732,0.775 -1.242,0.775 v 0 c -0.206,0 -0.415,-0.046 -0.612,-0.144 m -26.678,-0.537 c -0.605,-0.341 -0.82,-1.11 -0.479,-1.72 v 0 c 0.339,-0.607 1.103,-0.826 1.708,-0.483 v 0 c 0.605,0.341 0.82,1.113 0.48,1.722 v 0 c -0.231,0.413 -0.655,0.644 -1.094,0.644 v 0 c -0.002,0 -0.003,0 -0.005,0 v 0 c -0.207,0 -0.417,-0.053 -0.61,-0.163 m 26.725,-3.148 c -0.602,-0.34 -0.819,-1.112 -0.48,-1.723 v 0 c 0.341,-0.61 1.107,-0.821 1.708,-0.48 v 0 c 0.605,0.342 0.821,1.109 0.48,1.72 v 0 c -0.23,0.413 -0.656,0.646 -1.094,0.646 v 0 c -0.208,0 -0.419,-0.052 -0.614,-0.163 M 407.85,47.728 c -0.681,-0.339 -0.966,-1.173 -0.626,-1.867 v 0 c 0.34,-0.69 1.172,-0.972 1.857,-0.63 v 0 c 0.684,0.341 0.964,1.178 0.624,1.868 v 0 c -0.242,0.493 -0.729,0.777 -1.236,0.777 v 0 c -0.208,0 -0.419,-0.048 -0.619,-0.148 m 0.981,-3.259 c -0.762,-0.33 -1.118,-1.22 -0.787,-1.993 v 0 c 0.328,-0.769 1.218,-1.123 1.98,-0.792 v 0 c 0.761,0.332 1.113,1.224 0.783,1.994 v 0 c -0.246,0.574 -0.799,0.915 -1.38,0.915 v 0 c -0.199,0 -0.401,-0.039 -0.596,-0.124 m 24.915,-0.173 c -0.47,-0.299 -0.611,-0.927 -0.312,-1.398 v 0 c 0.298,-0.476 0.919,-0.614 1.388,-0.315 v 0 c 0.469,0.299 0.612,0.923 0.313,1.399 v 0 c -0.192,0.304 -0.52,0.471 -0.854,0.471 v 0 c -0.183,0 -0.368,-0.051 -0.535,-0.157 m -23.002,-2.952 c -0.716,-0.267 -1.084,-1.071 -0.818,-1.79 v 0 c 0.267,-0.729 1.064,-1.091 1.777,-0.823 v 0 c 0.719,0.268 1.086,1.063 0.819,1.791 v 0 c -0.207,0.561 -0.735,0.91 -1.298,0.91 v 0 c -0.159,0 -0.322,-0.028 -0.48,-0.088 m 21.35,-0.313 c -0.376,-0.267 -0.463,-0.789 -0.198,-1.166 v 0 c 0.266,-0.379 0.784,-0.467 1.16,-0.201 v 0 c 0.373,0.267 0.462,0.788 0.195,1.169 v 0 c -0.161,0.23 -0.418,0.352 -0.678,0.353 v 0 c -0.166,0 -0.334,-0.051 -0.479,-0.155 M 413.372,38.78 c -0.662,-0.207 -1.03,-0.915 -0.823,-1.582 v 0 c 0.207,-0.671 0.908,-1.039 1.57,-0.829 v 0 c 0.661,0.206 1.032,0.913 0.825,1.58 v 0 c -0.167,0.542 -0.664,0.889 -1.199,0.889 v 0 c -0.123,0 -0.249,-0.019 -0.373,-0.058 m 16.348,-0.454 c -0.279,-0.225 -0.327,-0.636 -0.106,-0.918 v 0 c 0.223,-0.286 0.632,-0.331 0.913,-0.107 v 0 c 0.281,0.224 0.329,0.633 0.108,0.918 v 0 c -0.128,0.163 -0.318,0.248 -0.51,0.248 v 0 c -0.141,0 -0.284,-0.046 -0.405,-0.141 m -13.156,-1.495 c -0.538,-0.139 -0.862,-0.689 -0.725,-1.231 v 0 c 0.137,-0.547 0.685,-0.871 1.223,-0.733 v 0 c 0.539,0.139 0.865,0.688 0.727,1.233 v 0 c -0.115,0.458 -0.526,0.763 -0.974,0.763 v 0 c -0.083,0 -0.167,-0.011 -0.251,-0.032 m 10.305,-0.273 c -0.306,-0.132 -0.448,-0.49 -0.316,-0.798 v 0 c 0.134,-0.312 0.489,-0.452 0.795,-0.32 v 0 c 0.307,0.133 0.45,0.492 0.318,0.801 v 0 c -0.099,0.23 -0.323,0.367 -0.557,0.367 v 0 c -0.08,0 -0.162,-0.016 -0.24,-0.05 m -6.815,-0.757 c -0.449,-0.091 -0.741,-0.534 -0.651,-0.985 v 0 c 0.09,-0.456 0.529,-0.749 0.978,-0.658 v 0 c 0.449,0.091 0.743,0.532 0.652,0.988 v 0 c -0.08,0.396 -0.427,0.671 -0.816,0.671 v 0 c -0.054,0 -0.108,-0.005 -0.163,-0.016 m 3.58,-0.118 c -0.352,-0.054 -0.599,-0.386 -0.547,-0.743 v 0 c 0.052,-0.359 0.384,-0.604 0.736,-0.552 v 0 c 0.356,0.053 0.603,0.383 0.55,0.742 v 0 c -0.046,0.326 -0.325,0.559 -0.646,0.559 v 0 c -0.03,0 -0.061,-10e-4 -0.093,-0.006"
                 id="path2554"
                 style="fill:url(#linearGradient2546);stroke:none" />
            </g>
          </g>
        </g>
      </g>
      <g
         transform="matrix(1.25,0,0,-1.25,-503.275,83.22375)"
         id="g2556">
        <g
           id="g2558">
          <g
             id="g2564">
            <g
               id="g2566">
              <path
                 d="m 421.006,65.801 c 0,-0.432 0.348,-0.78 0.774,-0.78 v 0 c 0.428,0 0.776,0.348 0.776,0.78 v 0 c 0,0.433 -0.348,0.778 -0.776,0.778 v 0 c -0.426,0 -0.774,-0.345 -0.774,-0.778 m -3.9,0.216 c -0.444,-0.119 -0.708,-0.576 -0.59,-1.024 v 0 c 0.12,-0.449 0.578,-0.712 1.019,-0.593 v 0 c 0.445,0.12 0.709,0.578 0.591,1.027 v 0 c -0.1,0.375 -0.435,0.62 -0.801,0.62 v 0 c -0.072,0 -0.146,-0.01 -0.219,-0.03 m 8.331,-0.591 c -0.119,-0.448 0.145,-0.906 0.588,-1.026 v 0 c 0.444,-0.12 0.902,0.144 1.021,0.592 v 0 c 0.118,0.448 -0.147,0.905 -0.592,1.025 v 0 c -0.072,0.02 -0.145,0.029 -0.216,0.029 v 0 c -0.366,0 -0.702,-0.244 -0.801,-0.62 m -12.494,-0.9 c -0.576,-0.123 -0.944,-0.688 -0.821,-1.271 v 0 c 0.122,-0.578 0.687,-0.947 1.262,-0.824 v 0 c 0.576,0.123 0.943,0.692 0.82,1.272 v 0 c -0.106,0.505 -0.546,0.848 -1.037,0.848 v 0 c -0.074,0 -0.149,-0.008 -0.224,-0.025 m 16.414,-0.823 c -0.123,-0.58 0.244,-1.149 0.82,-1.272 v 0 c 0.574,-0.123 1.14,0.246 1.261,0.824 v 0 c 0.125,0.583 -0.244,1.148 -0.819,1.27 v 0 c -0.075,0.017 -0.151,0.025 -0.226,0.025 v 0 c -0.491,0 -0.93,-0.342 -1.036,-0.847 M 409.395,62 c -0.703,-0.112 -1.183,-0.772 -1.071,-1.485 v 0 c 0.111,-0.708 0.771,-1.193 1.474,-1.081 v 0 c 0.704,0.112 1.184,0.779 1.073,1.488 v 0 c -0.101,0.642 -0.648,1.094 -1.271,1.094 v 0 c -0.068,0 -0.136,-0.005 -0.205,-0.016 m 23.296,-1.079 c -0.11,-0.709 0.369,-1.376 1.072,-1.488 v 0 c 0.702,-0.112 1.365,0.373 1.475,1.081 v 0 c 0.113,0.713 -0.37,1.373 -1.07,1.485 v 0 c -0.068,0.011 -0.137,0.016 -0.204,0.016 v 0 c -0.623,0 -1.171,-0.451 -1.273,-1.094 m 2.411,-3.63 c -0.092,-0.888 0.552,-1.685 1.431,-1.779 v 0 c 0.884,-0.094 1.674,0.554 1.767,1.442 v 0 c 0.094,0.893 -0.547,1.685 -1.429,1.779 v 0 c -0.058,0.006 -0.114,0.009 -0.171,0.009 v 0 c -0.81,0 -1.51,-0.616 -1.598,-1.451 m -28.412,1.442 c -0.885,-0.094 -1.523,-0.886 -1.43,-1.779 v 0 c 0.092,-0.888 0.881,-1.536 1.766,-1.441 v 0 c 0.882,0.093 1.524,0.89 1.431,1.778 v 0 c -0.087,0.835 -0.785,1.451 -1.595,1.451 v 0 c -0.057,0 -0.114,-0.003 -0.172,-0.009 m 29.969,-5.701 c -0.051,-0.985 0.7,-1.826 1.674,-1.878 v 0 c 0.979,-0.05 1.815,0.706 1.866,1.691 v 0 c 0.051,0.99 -0.703,1.824 -1.678,1.875 v 0 c -0.032,0.002 -0.064,0.003 -0.096,0.003 v 0 c -0.934,0 -1.716,-0.734 -1.766,-1.691 m -31.622,1.688 c -0.973,-0.051 -1.728,-0.885 -1.676,-1.875 v 0 c 0.051,-0.985 0.888,-1.741 1.865,-1.691 v 0 c 0.977,0.052 1.728,0.893 1.677,1.878 v 0 c -0.05,0.957 -0.831,1.691 -1.77,1.691 v 0 c -0.032,0 -0.064,-10e-4 -0.096,-0.003 m 32.046,-6.274 c 0,-1.074 0.862,-1.945 1.926,-1.945 v 0 c 1.067,0 1.931,0.871 1.931,1.943 v 0 c 0,1.079 -0.864,1.942 -1.928,1.942 v 0 c -1.067,0 -1.929,-0.863 -1.929,-1.94 M 402.62,48.444 c 0,-1.072 0.868,-1.943 1.931,-1.943 v 0 c 1.061,0 1.925,0.871 1.925,1.945 v 0 c 0,1.077 -0.864,1.94 -1.925,1.94 v 0 c -1.063,0 -1.931,-0.863 -1.931,-1.942 m 35.713,-2.71 c -0.974,-0.052 -1.725,-0.892 -1.674,-1.876 v 0 c 0.052,-0.991 0.886,-1.739 1.862,-1.689 v 0 c 0.975,0.052 1.728,0.885 1.677,1.876 v 0 c -0.049,0.951 -0.834,1.691 -1.771,1.691 v 0 c -0.031,0 -0.062,-10e-4 -0.094,-0.002 m -34.971,-1.689 c -0.051,-0.991 0.702,-1.824 1.676,-1.876 v 0 c 0.98,-0.051 1.813,0.698 1.866,1.689 v 0 c 0.05,0.984 -0.701,1.824 -1.677,1.876 v 0 c -0.032,10e-4 -0.063,0.002 -0.094,0.002 v 0 c -0.936,0 -1.722,-0.74 -1.771,-1.691 m 33.171,-2.669 c -0.88,-0.093 -1.523,-0.89 -1.431,-1.78 v 0 c 0.094,-0.893 0.888,-1.533 1.768,-1.44 v 0 c 0.883,0.094 1.524,0.885 1.43,1.779 v 0 c -0.087,0.831 -0.785,1.45 -1.597,1.45 v 0 c -0.055,0 -0.112,-0.003 -0.17,-0.009 M 405.26,39.935 c -0.093,-0.894 0.546,-1.685 1.43,-1.779 v 0 c 0.882,-0.093 1.674,0.547 1.767,1.44 v 0 c 0.093,0.89 -0.549,1.687 -1.431,1.78 v 0 c -0.058,0.006 -0.115,0.009 -0.172,0.009 v 0 c -0.812,0 -1.508,-0.619 -1.594,-1.45 m 28.504,-2.481 c -0.704,-0.113 -1.185,-0.778 -1.073,-1.486 v 0 c 0.112,-0.712 0.773,-1.191 1.476,-1.079 v 0 c 0.701,0.112 1.183,0.773 1.071,1.485 v 0 c -0.101,0.64 -0.651,1.096 -1.273,1.096 v 0 c -0.066,0 -0.134,-0.006 -0.201,-0.016 m -25.439,-1.08 c -0.113,-0.712 0.368,-1.374 1.07,-1.485 v 0 c 0.703,-0.112 1.364,0.367 1.477,1.079 v 0 c 0.11,0.707 -0.37,1.373 -1.074,1.485 v 0 c -0.069,0.01 -0.136,0.016 -0.203,0.016 v 0 c -0.622,0 -1.171,-0.456 -1.27,-1.095 m 21.852,-1.916 c -0.576,-0.123 -0.944,-0.694 -0.821,-1.271 v 0 c 0.123,-0.583 0.687,-0.951 1.263,-0.827 v 0 c 0.575,0.122 0.943,0.69 0.819,1.273 v 0 c -0.106,0.502 -0.549,0.849 -1.041,0.849 v 0 c -0.073,0 -0.147,-0.007 -0.22,-0.024 m -18.054,-0.826 c -0.124,-0.582 0.244,-1.15 0.819,-1.273 v 0 c 0.575,-0.123 1.14,0.245 1.262,0.828 v 0 c 0.123,0.577 -0.244,1.148 -0.82,1.271 v 0 c -0.073,0.017 -0.147,0.024 -0.22,0.024 v 0 c -0.492,0 -0.935,-0.347 -1.041,-0.85 m 13.901,-1.144 c -0.442,-0.12 -0.706,-0.578 -0.589,-1.027 v 0 c 0.12,-0.447 0.577,-0.71 1.019,-0.59 v 0 c 0.446,0.119 0.709,0.576 0.591,1.025 v 0 c -0.099,0.374 -0.437,0.621 -0.805,0.621 v 0 c -0.071,0 -0.144,-0.009 -0.216,-0.029 m -9.508,-0.594 c -0.118,-0.447 0.147,-0.904 0.59,-1.023 v 0 c 0.445,-0.12 0.901,0.143 1.02,0.591 v 0 c 0.118,0.448 -0.146,0.906 -0.591,1.026 v 0 c -0.071,0.019 -0.143,0.029 -0.214,0.029 v 0 c -0.366,0 -0.705,-0.247 -0.805,-0.623 m 4.49,-0.807 c 0,-0.414 0.32,-0.75 0.722,-0.777 v 0 h 0.105 c 0.403,0.027 0.723,0.363 0.723,0.778 v 0 c 0,0.43 -0.348,0.779 -0.776,0.779 v 0 c -0.426,0 -0.774,-0.349 -0.774,-0.78"
                 id="path2576"
                 style="fill:url(#linearGradient2568);stroke:none" />
            </g>
          </g>
        </g>
      </g>
    </g>
  </g>
</svg>
